<svg width="200" height="320" viewBox="0 0 200 320" fill="none" xmlns="http://www.w3.org/2000/svg">
  <path d="M100 30C122.091 30 140 12.0914 140 -10H60C60 12.0914 77.9086 30 100 30Z" fill="#5163df" opacity="0.2"/>
  <path d="M125 280C125 302.091 107.091 320 85 320H175C152.909 320 135 302.091 135 280V180H125V280Z" fill="#6c8cfd" opacity="0.3"/>
  <path d="M80 180C80 157.909 97.9086 140 120 140H65C87.0914 140 105 157.909 105 180V280H80V180Z" fill="#5163df" opacity="0.2"/>
  <rect x="60" y="180" width="80" height="140" rx="20" fill="#3b5998" opacity="0.2"/>
  <circle cx="100" cy="100" r="60" fill="#5163df" opacity="0.1"/>
  <path d="M130 120C130 142.091 112.091 160 90 160C67.9086 160 50 142.091 50 120C50 97.9086 67.9086 80 90 80C112.091 80 130 97.9086 130 120Z" fill="#6c8cfd" opacity="0.2"/>
</svg>
