<svg version="1.1" id="Layer_1" xmlns="http://www.w3.org/2000/svg" xmlns:xlink="http://www.w3.org/1999/xlink" x="0px" y="0px"
	 width="100%" viewBox="0 0 1600 1163" enable-background="new 0 0 1600 1163" xml:space="preserve">
<path fill="#20225D" opacity="1.000000" stroke="none" 
	d="
M2.000000,1.000000 
	C534.951538,1.000000 1067.903076,1.000000 1600.927246,1.000000 
	C1600.927246,388.582947 1600.927246,776.165955 1600.927246,1164.000000 
	C1068.298462,1164.000000 535.596863,1164.000000 2.511453,1163.547607 
	C2.133405,1162.428833 2.144217,1161.762329 2.144219,1161.095947 
	C2.144983,775.893738 2.145178,390.691559 2.139088,5.489375 
	C2.139064,3.992916 2.048355,2.496458 2.000000,1.000000 
M250.647858,574.019104 
	C250.730042,573.681396 250.812225,573.343689 251.096039,572.102722 
	C251.050079,568.398132 251.004120,564.693604 251.377228,560.319824 
	C254.840317,560.278320 258.326691,559.993042 261.754547,560.320435 
	C263.050140,560.444153 264.210541,561.983154 265.282654,563.790466 
	C265.403137,566.834961 265.523621,569.879517 265.533020,573.523071 
	C266.355042,573.909058 267.177063,574.295044 268.824890,574.820618 
	C270.216034,574.769226 271.607178,574.717773 273.648163,574.883240 
	C274.095245,574.816650 274.542358,574.750000 275.811218,574.821594 
	C277.085724,575.189575 278.360229,575.557617 279.537109,576.850586 
	C279.823090,591.078552 276.593536,589.195679 291.570648,589.111267 
	C291.975189,589.111267 292.379730,589.111267 293.038849,589.574768 
	C293.424072,589.936401 293.809296,590.298096 294.158722,591.622620 
	C294.230469,595.110535 294.302216,598.598450 293.974701,602.577026 
	C293.704163,602.900513 293.433594,603.224060 292.237976,603.363953 
	C288.520233,603.456543 284.802460,603.549072 280.359344,603.543152 
	C280.070831,606.264648 279.380035,609.016296 279.581390,611.701050 
	C279.948700,616.598938 278.839294,619.069153 273.142395,618.464905 
	C270.805328,618.217041 266.964539,616.836853 265.407593,621.911865 
	C265.527771,625.311340 265.647980,628.710754 266.079926,632.828857 
	C275.081665,632.985718 284.083374,633.142517 293.719421,633.999390 
	C293.894623,638.018799 294.069824,642.038147 293.608246,646.673096 
	C289.067413,646.959534 284.526581,647.245972 279.514160,647.562195 
	C279.514160,651.321350 279.536621,654.760803 279.507263,658.199890 
	C279.482239,661.135864 280.862396,662.201477 283.804993,662.189758 
	C287.352722,662.175659 290.902527,662.671448 294.432312,663.874878 
	C294.368530,667.581909 294.304749,671.288940 293.892487,675.399597 
	C293.876801,675.576660 293.861145,675.753662 292.964264,676.171692 
	C289.002594,676.301453 285.040955,676.431152 280.346100,676.493164 
	C280.015869,681.013611 279.685638,685.533997 278.617126,690.417175 
	C276.409851,690.587097 274.202545,690.757019 271.498322,690.723206 
	C271.333282,690.792542 271.168243,690.861877 270.339630,690.773376 
	C269.890228,690.821350 269.440826,690.869263 268.488800,690.696716 
	C268.326843,690.781860 268.164917,690.866943 267.195892,690.915833 
	C266.300049,695.465454 265.404205,700.015015 264.407104,705.078979 
	C275.295471,705.078979 284.826385,705.078979 294.921997,705.078979 
	C294.921997,700.309631 294.921997,695.768860 294.921997,691.404907 
	C297.714691,691.404907 299.935791,691.404907 302.277100,691.404907 
	C302.484741,694.080688 302.584167,696.395996 302.860565,698.690002 
	C303.314392,702.456360 305.407043,704.977600 309.251434,705.125000 
	C315.473450,705.363525 321.711334,705.189209 328.098969,705.189209 
	C328.300476,703.422058 328.447968,702.128601 329.170135,701.207214 
	C330.405640,703.972473 332.458191,704.785034 335.508179,704.695374 
	C343.500916,704.460388 351.505371,704.645752 359.504791,704.599976 
	C361.217743,704.590149 362.929138,704.311462 365.204407,704.105713 
	C364.391022,701.641785 363.848755,699.924194 363.258759,698.223083 
	C351.595917,664.598389 362.286957,627.741333 390.054596,605.474243 
	C420.186493,581.311340 445.833282,553.076965 466.761597,520.585083 
	C467.782776,518.999756 468.985657,517.531433 470.992950,514.798035 
	C474.743866,519.304016 477.908997,523.106262 481.074127,526.908569 
	C481.487976,526.690613 481.901794,526.472656 482.315643,526.254639 
	C482.315643,513.336792 482.315643,500.418915 482.315643,486.588348 
	C471.417297,493.493652 461.292419,499.908875 450.314240,506.864777 
	C455.058990,508.641266 458.527344,509.939880 462.631256,511.476440 
	C459.568542,515.134827 457.096344,518.222900 454.483917,521.187500 
	C427.938995,551.310425 398.236328,577.900024 365.747284,601.506042 
	C348.250336,614.219055 336.271820,631.185364 330.508667,652.272095 
	C330.137299,653.630798 329.234833,654.844360 328.474213,655.275330 
	C327.484161,644.909180 329.770691,635.152405 335.909729,626.909485 
	C349.173889,609.099731 363.656433,592.393799 382.388702,579.890808 
	C387.093048,576.750916 391.296143,572.859924 395.729614,569.314087 
	C383.396149,568.271362 371.623535,568.183350 359.853577,568.320679 
	C355.906281,568.366821 354.003082,567.006104 354.016388,562.869385 
	C354.073730,545.050354 354.036316,527.230835 353.960419,509.411774 
	C353.947357,506.345642 355.200897,504.553406 358.282562,504.580231 
	C371.925537,504.698914 385.694611,503.814606 399.179016,505.368225 
	C417.458099,507.474182 427.917877,521.030396 426.219116,537.036072 
	C426.054230,538.589661 426.911804,540.251770 427.294739,541.863525 
	C427.867279,542.122498 428.439850,542.381470 429.012390,542.640442 
	C437.558228,534.150024 446.104065,525.659546 455.006714,516.814575 
	C448.001801,514.504272 442.328705,512.633240 435.554230,510.398956 
	C438.653900,508.439850 440.437531,507.261963 442.269043,506.164062 
	C448.684448,502.318359 455.307098,498.780701 461.481659,494.582733 
	C466.427643,491.220062 466.502441,487.660339 462.386566,483.341553 
	C460.559448,481.424408 458.455902,479.745819 456.353180,478.120209 
	C441.124115,466.346863 423.720520,459.810364 404.641266,459.312592 
	C373.024231,458.487762 341.381195,458.622864 309.748566,458.469330 
	C304.288300,458.442841 302.617126,460.268982 302.283356,465.659271 
	C302.142120,467.940460 302.259827,470.237701 302.259827,472.446075 
	C294.707214,473.608612 294.707092,473.608612 294.706055,466.814148 
	C294.705658,464.226257 294.705963,461.638397 294.705963,459.047943 
	C289.378143,459.047943 284.823181,459.047943 280.181152,459.047943 
	C280.181152,463.857391 280.181152,468.277161 280.181152,473.164398 
	C283.737000,473.164398 287.032776,473.230743 290.324493,473.143738 
	C293.021729,473.072418 294.442139,474.092102 293.862640,477.808044 
	C293.806458,480.975677 293.750275,484.143311 292.798309,487.483948 
	C288.566376,487.483948 284.334442,487.483948 279.641144,487.483948 
	C279.641144,493.494141 279.641052,498.740936 279.641144,503.987732 
	C279.641327,517.377014 279.641357,517.377014 265.798584,515.204956 
	C265.607391,511.394379 265.416199,507.583801 265.062744,503.215393 
	C264.697388,503.168396 264.332001,503.121429 263.546143,502.995605 
	C263.546143,502.995605 263.150787,502.832092 262.691895,502.123962 
	C260.433105,502.159424 258.174347,502.194855 254.936295,502.246796 
	C253.303009,502.267517 251.669724,502.288239 250.473053,501.494934 
	C250.587814,499.659790 250.702560,497.824615 251.118088,495.668610 
	C251.042282,495.116089 250.966476,494.563538 250.965988,493.211182 
	C250.730515,491.174744 252.194138,488.182892 248.440964,488.016418 
	C244.549500,487.843750 240.644424,487.977966 236.637848,487.977966 
	C236.637848,492.981049 236.637848,497.343475 236.637848,502.148285 
	C241.402359,502.148285 245.801346,502.148285 250.289032,503.176147 
	C250.298431,506.500519 250.469131,509.834686 250.268600,513.146362 
	C250.093536,516.037354 251.236206,517.143250 254.640015,517.131470 
	C256.751953,517.006104 258.863892,516.880737 261.736786,516.731689 
	C262.496643,516.729492 263.256500,516.727234 264.340729,517.198914 
	C264.750092,517.581726 265.159454,517.964478 265.583038,519.140564 
	C265.628235,522.805420 265.673431,526.470337 265.864685,530.736389 
	C266.242096,530.825867 266.619537,530.915283 267.893616,531.196594 
	C271.802826,531.773071 275.712036,532.349609 279.469940,533.838440 
	C279.509003,536.166016 279.755859,538.512878 279.541962,540.816956 
	C279.149811,545.041748 280.972900,546.588135 285.016998,545.943054 
	C285.993896,545.787231 286.986694,545.731201 288.723236,545.771667 
	C289.482330,545.711365 290.241425,545.651062 291.501160,545.771179 
	C291.662903,545.698425 291.824646,545.625671 292.874023,545.794739 
	C293.173523,545.860474 293.473053,545.926147 293.691437,546.242798 
	C293.756775,546.446228 293.894775,546.529846 294.126709,547.338562 
	C294.209198,547.895203 294.291718,548.451843 294.103027,549.641724 
	C294.165100,550.091248 294.227203,550.540710 294.101318,551.776550 
	C294.161774,552.847656 294.222229,553.918823 294.128052,555.506104 
	C294.201660,555.669922 294.275238,555.833740 294.197662,556.747375 
	C294.135468,557.509705 294.073273,558.272034 293.150177,559.458679 
	C284.145966,559.458679 275.141754,559.458679 265.572815,559.458679 
	C265.572815,554.650574 265.572815,550.101929 265.572815,545.655273 
	C260.162537,545.088013 255.324585,544.580688 250.748016,543.187378 
	C250.755020,540.125671 250.762024,537.063965 250.973480,533.423218 
	C250.633774,532.976562 250.294067,532.529846 249.979675,532.013123 
	C249.979675,532.013123 249.913605,532.047546 249.408997,531.382263 
	C245.188934,531.562134 240.619019,529.037354 236.524612,533.748840 
	C236.616501,537.140991 236.708389,540.533142 236.673737,544.545044 
	C237.770279,544.890320 238.866837,545.235596 240.710205,545.708557 
	C241.459122,545.624573 242.208054,545.540588 243.880981,545.687439 
	C245.964493,545.687439 248.048004,545.687439 250.531082,545.687439 
	C250.531082,550.579163 250.531082,554.943542 250.531082,559.047974 
	C245.790329,559.711548 241.337585,560.334839 236.392181,561.619690 
	C236.467728,565.396301 236.543274,569.172974 236.566696,573.600708 
	C237.701630,573.970398 238.836578,574.340088 240.843018,574.855103 
	C242.899841,574.805420 244.956680,574.755676 247.681000,574.891479 
	C248.507980,574.642578 249.334961,574.393738 250.065872,574.063354 
	C250.065872,574.063354 250.118378,574.177917 250.647858,574.019104 
M249.081894,647.327881 
	C245.397568,647.460266 241.713226,647.592651 237.578842,647.549255 
	C237.302765,648.043152 237.026688,648.537048 236.360748,649.848694 
	C236.423340,652.261414 236.485916,654.674194 236.311874,657.500366 
	C236.311874,657.500366 236.555969,657.909363 236.326401,658.670959 
	C236.262634,659.463684 236.198868,660.256470 235.291809,661.496216 
	C231.050003,661.853088 225.218170,660.688232 223.011978,662.993347 
	C220.789886,665.315063 222.161041,671.084656 221.995483,675.344971 
	C221.984756,675.620911 222.297409,675.909424 222.435638,676.150269 
	C227.063553,676.150269 231.658661,676.150269 237.022491,676.150269 
	C237.022491,671.267029 237.022491,666.664612 237.947540,662.054993 
	C241.960388,661.924866 245.973236,661.794800 250.596558,661.682800 
	C250.676254,661.870056 250.755966,662.057373 251.181091,662.969727 
	C250.965591,667.354126 250.750092,671.738464 250.534882,676.116699 
	C255.977798,676.116699 260.562134,676.116699 265.324646,676.116699 
	C265.324646,671.249451 265.324646,666.717957 265.324646,661.621704 
	C260.247620,661.870056 255.514236,662.101562 250.694794,661.539612 
	C250.742218,661.032898 250.789658,660.526184 251.022705,659.195190 
	C250.965240,657.793213 250.907776,656.391174 251.038193,654.170654 
	C250.678772,651.985291 250.319366,649.799866 249.081894,647.327881 
M506.663605,565.871399 
	C502.148987,564.704529 497.640625,563.512817 493.117584,562.379639 
	C490.089874,561.621094 487.877045,562.483398 486.889618,565.676453 
	C483.712006,575.952148 477.335480,584.261658 470.524750,592.312561 
	C467.791443,595.543579 465.159454,598.860352 462.040863,602.677246 
	C464.411560,603.631348 465.876007,604.341919 467.412811,604.819580 
	C476.790222,607.734192 486.320862,610.219910 495.537231,613.572144 
	C506.629303,617.606689 511.948578,626.561462 510.803223,637.703369 
	C509.612152,649.290527 503.630951,655.946838 491.601227,658.005493 
	C485.902863,658.980713 480.008453,659.072693 474.200684,659.100220 
	C450.201691,659.214050 426.201843,659.121155 402.202423,659.170227 
	C395.488220,659.183960 394.085266,660.852356 394.023712,667.477478 
	C393.940186,676.468445 393.746765,685.461609 393.399384,694.445984 
	C393.067413,703.032898 397.027405,707.086548 405.170715,706.661682 
	C414.957764,706.150940 424.761169,705.749939 434.559540,705.699280 
	C458.363159,705.576111 482.227264,707.159790 505.867828,702.955383 
	C531.342102,698.424866 550.164673,685.162598 559.916626,660.695190 
	C565.270508,647.262573 563.747009,633.106628 562.376160,619.199341 
	C561.086426,606.116028 555.026245,595.198181 545.570984,586.016113 
	C534.800110,575.556396 521.421204,570.296082 506.663605,565.871399 
M1022.885315,516.767883 
	C1029.776489,540.234802 1036.759277,563.675537 1043.465820,587.195068 
	C1044.546997,590.986938 1046.251953,592.142395 1050.058594,591.949158 
	C1056.373291,591.628601 1062.728394,591.638611 1069.042969,591.964355 
	C1072.660400,592.151001 1073.879639,590.760071 1074.700684,587.434387 
	C1078.330200,572.732483 1082.230469,558.097229 1086.069824,543.447571 
	C1087.948120,536.281006 1089.907349,529.135559 1091.829834,521.980591 
	C1093.149780,523.588806 1093.619995,525.108398 1094.021484,526.646057 
	C1099.320312,546.942078 1104.710938,567.215149 1109.803345,587.562805 
	C1110.679077,591.061584 1112.134399,592.086182 1115.571777,591.943665 
	C1121.892212,591.681580 1128.241211,591.651672 1134.558350,591.948975 
	C1138.183716,592.119629 1139.720215,590.976135 1140.750366,587.392212 
	C1149.756836,556.059021 1158.992188,524.791565 1168.151245,493.502167 
	C1168.594604,491.987610 1168.959961,490.450226 1169.514648,488.342010 
	C1165.606201,488.342010 1162.474976,488.297028 1159.345581,488.352386 
	C1154.536255,488.437408 1148.216187,486.786560 1145.329224,489.205109 
	C1142.213623,491.815247 1142.159546,498.223877 1141.030884,503.036713 
	C1136.223389,523.535278 1131.512573,544.056396 1126.484131,565.790100 
	C1125.700439,563.390442 1125.223755,562.187866 1124.913818,560.943726 
	C1119.285767,538.352173 1113.576172,515.779846 1108.163940,493.136536 
	C1107.243408,489.285828 1105.697266,488.039093 1101.811646,488.253387 
	C1095.665894,488.592285 1089.480591,488.517120 1083.325806,488.271362 
	C1080.037354,488.140045 1078.739502,489.259155 1077.971313,492.488800 
	C1074.079834,508.849274 1069.922852,525.146729 1065.833374,541.459900 
	C1063.885986,549.228333 1061.881836,556.982605 1059.543701,566.153809 
	C1058.751953,563.387268 1058.335571,562.138550 1058.038208,560.862000 
	C1052.753418,538.175659 1047.511108,515.479309 1042.150391,492.810974 
	C1041.778198,491.237000 1040.598999,488.627899 1039.711914,488.592621 
	C1031.501587,488.266052 1023.272827,488.399780 1014.448486,488.399780 
	C1017.365417,498.208984 1020.010071,507.102844 1022.885315,516.767883 
M1192.558838,499.061646 
	C1177.150391,515.114075 1173.960327,534.529358 1178.717041,555.211121 
	C1188.797729,599.040039 1236.958862,603.232422 1256.946411,579.140869 
	C1257.067139,578.995361 1257.516968,579.122925 1258.535522,579.122925 
	C1258.535522,583.278503 1258.535522,587.455444 1258.535522,591.507324 
	C1267.679810,591.507324 1276.097290,591.507324 1284.633789,591.507324 
	C1284.633789,557.078552 1284.633789,523.007568 1284.633789,488.722168 
	C1275.855835,488.722168 1267.316650,488.722168 1258.091309,488.722168 
	C1258.091309,493.080536 1258.091309,497.070007 1258.091309,501.604462 
	C1235.886963,482.611847 1212.539429,481.730347 1192.558838,499.061646 
M804.944641,578.487671 
	C804.944641,548.578491 804.944641,518.669250 804.944641,488.651306 
	C795.900024,488.651306 787.492249,488.651306 778.444092,488.651306 
	C778.444092,492.960022 778.444092,496.989746 778.444092,502.198822 
	C776.718262,500.584534 775.907410,499.843903 775.115967,499.083191 
	C755.479187,480.207397 723.448303,482.897644 707.524353,505.086792 
	C695.689575,521.578003 694.147949,540.068787 699.798096,558.962952 
	C711.988342,599.727051 757.989502,601.972534 776.549438,579.475098 
	C776.811707,579.157104 777.313599,579.036865 778.485229,578.398804 
	C778.485229,583.127502 778.485229,587.317261 778.485229,591.594788 
	C787.602234,591.594788 796.024841,591.594788 804.945557,591.594788 
	C804.945557,587.388855 804.945557,583.435425 804.944641,578.487671 
M975.179016,545.504639 
	C975.179016,560.774170 975.179016,576.043640 975.179016,591.531250 
	C984.186584,591.531250 992.562927,591.531250 1001.076843,591.531250 
	C1001.076843,568.922913 1002.149231,546.577515 1000.820435,524.375793 
	C998.920837,492.636658 966.075256,476.351288 938.604980,492.666840 
	C935.306763,494.625732 932.441406,497.313354 928.995483,499.954407 
	C928.995483,484.385071 928.995483,469.272614 928.995483,454.007874 
	C920.183044,454.007874 911.638733,454.007874 903.163330,454.007874 
	C903.163330,500.050812 903.163330,545.762207 903.163330,591.530029 
	C911.922546,591.530029 920.316528,591.530029 928.998230,591.530029 
	C928.998230,589.392151 928.997986,587.578003 928.998291,585.763855 
	C929.001343,568.107910 928.822021,550.449463 929.064392,532.796814 
	C929.263611,518.288696 938.133301,509.398682 951.976746,509.175293 
	C965.319763,508.959991 973.951599,517.261230 974.981018,531.523315 
	C975.292114,535.833618 975.126587,540.178284 975.179016,545.504639 
M590.196899,465.828827 
	C590.196899,507.734161 590.196899,549.639526 590.196899,591.472290 
	C599.442200,591.472290 607.844055,591.472290 616.688477,591.472290 
	C616.688477,574.833069 616.688477,558.583435 616.688477,541.897522 
	C618.251770,541.897522 619.385864,541.927246 620.518066,541.892944 
	C630.496765,541.590942 640.564453,542.003723 650.431702,540.789978 
	C663.815491,539.143738 674.785034,532.686768 681.059082,520.211426 
	C694.071838,494.337006 678.766785,465.431549 649.456665,462.509583 
	C630.798340,460.649506 611.854858,461.599792 593.038391,461.522339 
	C592.096741,461.518463 591.145996,463.730347 590.196899,465.828827 
M1373.621216,573.248413 
	C1385.458252,545.105347 1397.295166,516.962341 1409.332642,488.342468 
	C1401.099609,488.342468 1393.763062,488.547424 1386.446289,488.256561 
	C1382.748535,488.109619 1380.951172,489.100830 1379.609375,492.813416 
	C1372.539185,512.375244 1365.110718,531.807617 1357.800049,551.282471 
	C1356.829468,553.868164 1355.822021,556.440002 1354.512573,559.848633 
	C1353.552124,557.645020 1352.901245,556.326416 1352.391357,554.955261 
	C1345.955200,537.650574 1339.568359,520.327515 1333.099854,503.034882 
	C1331.300659,498.224548 1330.529785,491.683411 1327.000610,489.244171 
	C1323.458618,486.796021 1317.064453,488.432983 1311.919067,488.358734 
	C1307.556274,488.295776 1303.191895,488.345795 1298.314331,488.345795 
	C1299.327881,490.955872 1299.899780,492.506897 1300.527954,494.034760 
	C1312.936890,524.214783 1325.296509,554.415344 1337.843628,584.537903 
	C1339.262573,587.944336 1339.100464,590.700317 1337.637817,593.979553 
	C1331.395630,607.972839 1325.379150,622.066895 1319.301514,636.133301 
	C1318.730591,637.454956 1318.308716,638.840942 1317.588379,640.829895 
	C1325.788574,640.829895 1333.398926,640.673645 1340.997314,640.905212 
	C1344.121094,641.000427 1345.707275,640.053406 1346.923340,637.098083 
	C1355.604736,616.000793 1364.469727,594.979065 1373.621216,573.248413 
M834.428101,468.793884 
	C834.428101,475.218201 834.428101,481.642548 834.428101,488.558777 
	C829.905518,488.558777 826.152222,488.558777 822.474976,488.558777 
	C822.474976,495.973297 822.474976,502.861298 822.474976,510.188324 
	C826.664978,510.188324 830.427551,510.188324 834.428345,510.188324 
	C834.428345,517.297607 834.370178,523.955017 834.440918,530.611084 
	C834.570129,542.764221 834.270325,554.951294 835.103455,567.058533 
	C835.815125,577.399780 841.088501,585.318359 851.240845,589.137390 
	C861.821716,593.117676 872.776001,591.736084 883.816772,591.695618 
	C883.816772,584.209778 883.816772,577.278992 883.816772,569.773254 
	C881.471619,569.773254 879.356689,569.773987 877.241760,569.773071 
	C875.075928,569.772217 872.905029,569.865784 870.745300,569.750244 
	C863.914062,569.384949 860.996887,566.729614 860.959229,560.404358 
	C860.862915,544.244629 860.922791,528.083984 860.952759,511.923706 
	C860.953857,511.325775 861.295776,510.728485 861.559631,509.867371 
	C868.990479,509.867371 876.286926,509.867371 883.727783,509.867371 
	C883.727783,502.636292 883.727783,495.737549 883.727783,488.236176 
	C876.039490,488.236176 868.654785,488.236176 860.911194,488.236176 
	C860.911194,479.518097 860.911194,471.398315 860.911194,463.111694 
	C851.961243,463.111694 843.392029,463.111694 834.427734,463.111694 
	C834.427734,464.919067 834.427734,466.397003 834.428101,468.793884 
M548.663818,485.499207 
	C548.662354,480.000916 548.699463,474.502289 548.649414,469.004425 
	C548.590149,462.492615 547.528259,461.416565 541.119263,461.410187 
	C513.461243,461.382690 485.803253,461.373596 458.145264,461.382721 
	C456.387817,461.383301 454.630402,461.595428 452.154846,461.755615 
	C458.221497,466.970612 463.756683,471.423248 468.932983,476.260040 
	C474.676758,481.627075 474.532593,481.777313 481.398590,477.570770 
	C485.701782,474.934418 490.010193,472.306580 495.388306,469.019684 
	C495.388306,472.250153 495.399536,474.035767 495.386444,475.821167 
	C495.321564,484.650970 495.301758,493.481598 495.153442,502.310059 
	C495.101257,505.418182 496.226166,506.882904 499.510315,506.864563 
	C514.005371,506.783630 528.501160,506.797577 542.996460,506.850220 
	C547.045105,506.864929 548.706177,504.890808 548.654114,500.993317 
	C548.589600,496.162506 548.654175,491.329956 548.663818,485.499207 
M472.236908,531.718140 
	C463.572479,543.270935 455.727142,555.570251 446.043976,566.194641 
	C432.835632,580.686890 418.221497,593.897217 404.225006,607.672424 
	C402.517975,609.352417 400.903351,611.126343 399.245911,612.856812 
	C399.450073,613.308899 399.654205,613.761047 399.858337,614.213135 
	C403.593506,613.987000 407.476074,614.333801 411.033875,613.418396 
	C419.072296,611.349976 427.199860,609.264221 434.849884,606.114014 
	C466.159363,593.220703 481.847839,567.981384 479.890472,534.226318 
	C479.782593,532.365479 478.276276,530.585632 477.420898,528.768127 
	C475.818237,529.548645 474.215576,530.329163 472.236908,531.718140 
M626.339722,702.234802 
	C613.366699,706.837158 604.893250,703.513733 599.526489,691.529236 
	C597.836426,687.755249 594.710510,689.406677 592.192688,689.504333 
	C591.656006,689.525208 590.452332,692.810791 590.917297,694.102295 
	C592.018738,697.162231 593.529480,700.269470 595.603577,702.747559 
	C601.441345,709.722595 609.649963,711.192261 618.170288,711.345032 
	C631.219116,711.579041 641.886292,703.458374 643.414856,691.773926 
	C644.636658,682.434937 641.432495,672.710388 625.913635,668.311035 
	C620.154114,666.678284 614.377136,665.019897 608.783997,662.907593 
	C599.762085,659.500427 596.485779,649.034180 602.014404,642.140869 
	C609.365601,632.975037 626.668701,634.025269 632.016724,644.460083 
	C634.793762,649.878479 638.201050,649.059509 642.666565,648.020264 
	C642.030640,641.872803 639.211914,637.363098 634.604736,633.966064 
	C626.610779,628.071899 617.528076,627.687012 608.356873,629.728699 
	C597.589661,632.125732 591.101807,639.896545 590.659729,649.873352 
	C590.216736,659.870605 595.520508,666.814514 606.699402,670.567017 
	C612.533813,672.525452 618.505432,674.078369 624.325806,676.074646 
	C630.022888,678.028625 634.345764,681.538696 634.893127,688.028015 
	C635.424805,694.331543 632.534058,698.899902 626.339722,702.234802 
M718.549622,675.839844 
	C718.247192,674.037720 718.044983,672.212036 717.626526,670.437256 
	C714.052856,655.277588 702.359802,646.201965 686.504333,646.234070 
	C670.797180,646.265869 659.221436,655.562927 655.800415,670.893982 
	C652.324585,686.471069 659.017029,702.086609 672.009827,708.247742 
	C691.306885,717.398193 719.306335,707.459167 718.549622,675.839844 
M958.914001,680.350525 
	C958.908081,658.512695 946.426331,645.742981 925.582581,646.250061 
	C911.352539,646.596191 900.172363,655.836609 896.717773,670.106812 
	C893.049438,685.259583 899.075134,700.940735 911.142395,707.417053 
	C929.753967,717.405823 957.196899,708.889648 958.914001,680.350525 
M975.053162,710.448425 
	C981.850708,710.806824 981.860779,710.806824 981.867554,704.239502 
	C981.877075,694.912048 981.786072,685.583313 981.918701,676.257751 
	C981.960999,673.285706 982.290405,670.252136 982.987305,667.367249 
	C985.022644,658.942566 991.198914,654.030884 999.818176,653.641907 
	C1012.602051,653.065125 1019.973022,659.742432 1020.259888,672.646118 
	C1020.507874,683.800293 1020.383179,694.964722 1020.284607,706.123352 
	C1020.257324,709.206665 1021.167542,710.722412 1024.524170,710.719727 
	C1027.748413,710.717163 1028.939087,709.515259 1028.903198,706.282837 
	C1028.774048,694.624878 1029.038818,682.960022 1028.763550,671.306946 
	C1028.537598,661.742859 1024.986572,653.479309 1016.089294,649.015076 
	C1006.887146,644.397949 997.393494,644.732849 988.398193,650.114258 
	C986.352295,651.338196 984.605286,653.061707 982.534546,654.702759 
	C982.216980,653.773438 981.917969,653.322571 981.936523,652.885193 
	C982.083008,649.433777 981.919495,646.775696 977.038025,647.023438 
	C971.843811,647.287048 973.324158,650.802795 973.308655,653.434387 
	C973.208740,670.423096 973.221985,687.412781 973.299500,704.401794 
	C973.308167,706.305176 973.952332,708.205688 975.053162,710.448425 
M758.348938,672.497253 
	C758.363831,676.993958 758.153076,681.505066 758.438721,685.984497 
	C759.119019,696.649536 762.883484,705.601196 773.727661,709.575623 
	C784.635498,713.573181 794.674011,712.020325 803.260254,703.706421 
	C803.668152,703.311462 804.245972,703.091980 805.087463,702.583679 
	C805.211304,704.014404 805.441833,705.004028 805.353760,705.964478 
	C805.045837,709.321716 806.263550,710.802246 809.863098,710.715454 
	C813.322327,710.631958 813.989807,708.944641 813.978027,705.981689 
	C813.905334,687.661865 813.899536,669.341492 813.957947,651.021667 
	C813.966553,648.317505 813.092651,647.199646 810.240601,647.064514 
	C806.526001,646.888611 805.244141,648.239990 805.301392,651.947021 
	C805.466003,662.603210 805.421265,673.264832 805.304382,683.922607 
	C805.223206,691.329285 802.908813,697.703674 795.985107,701.529785 
	C782.410645,709.031128 767.427307,700.764343 766.983093,685.318909 
	C766.662415,674.169128 766.796875,663.002747 766.919067,651.845886 
	C766.955078,648.562378 766.184326,646.983765 762.497070,647.039795 
	C759.143311,647.090759 758.185364,648.355652 758.269043,651.514038 
	C758.445496,658.171509 758.339600,664.836365 758.348938,672.497253 
M1080.422729,662.377441 
	C1081.920898,667.814148 1085.685303,665.715332 1090.189209,665.178040 
	C1088.739258,661.474609 1087.967407,658.022888 1086.183228,655.214172 
	C1079.991577,645.466980 1062.501709,643.018799 1051.925415,650.040222 
	C1046.264526,653.798401 1043.574951,658.872131 1044.148926,665.687622 
	C1044.705200,672.292603 1048.768188,676.204224 1054.345337,678.770630 
	C1057.201294,680.084900 1060.301270,680.884644 1063.318604,681.828369 
	C1067.133179,683.021423 1071.059814,683.903076 1074.788940,685.313293 
	C1081.790771,687.961243 1083.819458,694.434326 1079.457642,699.522278 
	C1073.045044,707.002075 1056.566650,705.386841 1052.641357,696.394836 
	C1050.282715,690.991150 1047.011475,692.071655 1041.815430,693.110535 
	C1043.631226,696.747986 1044.697266,700.294739 1046.855957,702.955139 
	C1054.759399,712.696045 1073.413452,714.525330 1083.381104,706.864624 
	C1093.519897,699.072449 1092.129639,685.071960 1080.551025,679.598145 
	C1077.413574,678.114929 1073.940308,677.357361 1070.666016,676.145020 
	C1066.006104,674.419495 1061.025146,673.180908 1056.838623,670.647888 
	C1050.890015,667.048767 1051.381958,659.667053 1057.258667,655.877991 
	C1064.792603,651.020447 1075.726196,653.785156 1080.422729,662.377441 
M842.950623,677.499512 
	C842.951660,671.338684 843.097107,665.173096 842.898071,659.018738 
	C842.783936,655.490601 844.195801,654.268799 847.588745,654.422058 
	C851.537537,654.600403 855.500549,654.463623 859.327087,654.463623 
	C860.673584,647.481750 860.426086,647.158813 854.313904,647.126465 
	C843.264771,647.067932 843.172302,647.069153 843.023621,635.753845 
	C842.983032,632.670471 842.260376,631.229370 838.842163,631.232117 
	C835.376648,631.234924 833.920593,632.435425 834.226257,635.904785 
	C834.386353,637.722534 834.095154,639.583740 834.295776,641.393433 
	C834.756104,645.544128 833.496338,647.630554 828.848938,647.335999 
	C827.754944,647.266602 825.554382,649.536743 825.595947,650.666992 
	C825.643127,651.953918 827.698975,654.289673 828.764771,654.225525 
	C833.841675,653.919922 834.385803,656.574341 834.316345,660.681580 
	C834.130432,671.667908 834.141907,682.661682 834.321228,693.648560 
	C834.431824,700.421265 835.769653,707.122437 843.375244,709.195251 
	C848.503662,710.592957 854.042908,710.483459 859.279907,711.035767 
	C860.634949,703.452148 860.469055,703.234253 854.325989,703.112000 
	C853.493652,703.095398 852.659119,703.117615 851.829163,703.065308 
	C845.573059,702.671570 843.178467,700.312927 842.993347,693.983398 
	C842.842468,688.825928 842.954895,683.660767 842.950623,677.499512 
M732.913940,674.500000 
	C732.916626,684.994629 733.005859,695.490417 732.871338,705.983276 
	C732.828857,709.300171 734.143188,710.265381 737.313293,710.274414 
	C741.153992,710.285278 741.031616,707.936462 741.029785,705.304688 
	C741.012268,679.984253 741.027893,654.663757 741.004639,629.343323 
	C741.003479,628.064819 740.733459,626.786621 740.599670,625.605408 
	C733.035583,624.273621 732.917908,624.364258 732.915527,631.521362 
	C732.910828,645.514221 732.913879,659.507141 732.913940,674.500000 
M881.646118,664.503052 
	C881.643555,660.351257 881.550964,656.196838 881.668091,652.048462 
	C881.755249,648.959351 881.169617,647.056274 877.362488,647.045593 
	C873.677979,647.035278 872.952271,648.623108 872.972290,651.872925 
	C873.081665,669.642029 873.053101,687.412170 873.009460,705.181824 
	C873.001953,708.225098 872.965759,710.690063 877.262085,710.733337 
	C881.469971,710.775757 881.692200,708.527466 881.674072,705.359253 
	C881.597961,692.073914 881.643860,678.787842 881.646118,664.503052 
M236.752258,600.085022 
	C236.753036,598.086853 236.554840,596.064331 236.795517,594.095520 
	C237.315292,589.843750 235.445389,588.460022 231.381271,588.675476 
	C228.468292,588.829834 225.521606,588.347900 222.198914,588.123535 
	C222.198914,583.270325 222.198914,578.998474 222.198914,574.758789 
	C203.694656,574.020020 207.669540,572.375916 207.393860,587.874817 
	C207.388931,588.152039 207.676392,588.434509 207.945724,588.933838 
	C212.453522,588.933838 217.075455,588.933838 222.053421,588.933838 
	C222.053421,590.654236 222.088623,592.293213 222.047653,593.930298 
	C221.796432,603.966797 221.796051,604.085938 231.914459,603.632141 
	C233.559204,603.558350 235.132828,601.897888 236.752258,600.085022 
M250.722443,598.900879 
	C251.620926,600.459534 252.188446,602.980835 253.471191,603.421814 
	C262.337189,606.469971 265.939178,603.751282 265.765717,594.606506 
	C265.746826,593.610779 265.979858,592.457275 265.559204,591.660217 
	C265.010101,590.619751 263.951233,589.139526 263.066650,589.107910 
	C259.289337,588.972839 255.205704,588.551697 251.856583,589.846191 
	C250.595047,590.333801 251.020920,595.187256 250.722443,598.900879 
M201.334045,545.887451 
	C206.407501,546.637451 208.032791,544.430969 207.847961,539.409363 
	C207.529266,530.750000 207.788864,530.746643 198.879120,530.926575 
	C197.088531,530.962769 195.296600,530.931824 193.154907,530.931824 
	C193.154907,536.234192 193.154907,540.928589 193.154907,545.886902 
	C195.785431,545.886902 198.107697,545.886902 201.334045,545.887451 
M221.871033,500.838867 
	C221.871033,496.571869 221.871033,492.304840 221.871033,487.929138 
	C217.008072,487.929138 212.432327,487.929138 207.742462,487.929138 
	C207.742462,492.731079 207.742462,497.239380 207.742462,502.495026 
	C212.601028,502.167450 216.992050,501.871368 221.871033,500.838867 
M255.727142,473.166779 
	C258.826508,473.166779 261.925903,473.166779 265.045410,473.166779 
	C265.045410,468.062347 265.045410,463.528107 265.045410,458.643341 
	C262.340271,458.643341 260.041382,458.643341 257.742493,458.643341 
	C255.496994,458.643341 253.251480,458.643341 250.672363,458.643341 
	C250.672363,462.701874 250.794235,466.003174 250.637085,469.291168 
	C250.488708,472.395691 251.905518,473.501251 255.727142,473.166779 
M236.405167,621.198486 
	C236.420624,624.001099 236.055145,626.882141 236.609558,629.573730 
	C236.893814,630.953674 238.704025,632.839722 240.030365,633.025085 
	C243.508881,633.511353 247.100372,633.189270 251.060242,633.189270 
	C251.060242,628.681519 251.159775,625.068542 250.994537,621.467712 
	C250.949844,620.493896 250.097046,618.728271 249.626251,618.732056 
	C245.234421,618.766602 240.496399,616.534912 236.405167,621.198486 
M236.221130,695.782288 
	C236.282303,706.539551 235.327423,705.613342 246.275620,705.681580 
	C247.730804,705.690674 249.187027,705.529785 250.830276,705.437012 
	C250.923203,703.828003 251.097031,702.526672 251.057709,701.231812 
	C250.711060,689.812927 253.835876,690.775574 239.839188,690.843384 
	C236.862457,690.857849 236.087097,692.356873 236.221130,695.782288 
M193.835739,633.157349 
	C193.381866,637.779968 192.927994,642.402588 192.474106,647.025269 
	C197.984009,647.025269 202.515732,647.025269 207.071411,647.025269 
	C207.071411,642.140442 207.071411,637.633545 207.071411,632.930847 
	C202.692978,632.930847 198.728088,632.930847 193.835739,633.157349 
M875.233948,623.773499 
	C872.017029,625.129395 870.389160,627.784546 871.583496,630.879150 
	C872.337524,632.832764 874.694153,635.174133 876.571106,635.405945 
	C878.461548,635.639465 881.303650,633.967896 882.571655,632.267944 
	C885.465332,628.388428 881.960999,623.981567 875.233948,623.773499 
z"/>
<path fill="#F6FBFF" opacity="1.000000" stroke="none" 
	d="
M1.500000,1.000000 
	C2.048355,2.496458 2.139064,3.992916 2.139088,5.489375 
	C2.145178,390.691559 2.144983,775.893738 2.144219,1161.095947 
	C2.144217,1161.762329 2.133405,1162.428833 2.063807,1163.547607 
	C1.666639,1163.833374 1.056180,1163.684204 1.044425,1163.497192 
	C0.960992,1162.169067 1.000000,1160.833374 1.000000,1159.500000 
	C1.000000,773.333313 1.000000,387.166656 1.500000,1.000000 
z"/>
<path fill="#FCFDFD" opacity="1.000000" stroke="none" 
	d="
M279.634735,575.925598 
	C278.360229,575.557617 277.085724,575.189575 275.239258,574.580200 
	C274.110962,574.447937 273.554657,574.557129 272.998322,574.666382 
	C271.607178,574.717773 270.216034,574.769226 268.281769,574.534790 
	C267.040466,573.807251 266.342285,573.365662 265.644104,572.924011 
	C265.523621,569.879517 265.403137,566.834961 265.610260,563.073608 
	C267.583405,561.906982 269.220276,561.110718 270.876068,561.069214 
	C277.100952,560.913086 283.336365,561.127136 289.557709,560.911072 
	C291.062073,560.858826 292.527618,559.689819 294.011047,559.034363 
	C294.073273,558.272034 294.135468,557.509705 294.404114,556.270874 
	C294.740997,555.432068 294.631714,555.163879 294.282715,554.989929 
	C294.222229,553.918823 294.161774,552.847656 294.377075,551.231445 
	C294.559967,550.127075 294.467072,549.567749 294.374207,549.008484 
	C294.291718,548.451843 294.209198,547.895203 294.125244,546.799438 
	C294.123810,546.260376 293.772614,545.991882 293.772614,545.991882 
	C293.473053,545.926147 293.173523,545.860474 292.335052,545.541626 
	C291.439087,545.149597 291.173889,545.250366 291.000519,545.590820 
	C290.241425,545.651062 289.482330,545.711365 288.017944,545.498291 
	C281.674103,545.796997 280.287659,542.880310 280.880615,537.840027 
	C281.064941,536.273132 280.074097,534.567993 279.621246,532.926147 
	C275.712036,532.349609 271.802826,531.773071 267.271820,530.900757 
	C266.339539,530.448364 266.029083,530.291809 265.718628,530.135193 
	C265.673431,526.470337 265.628235,522.805420 265.688660,518.364258 
	C265.854523,517.067322 265.914734,516.546692 265.954895,516.051147 
	C265.934814,516.076172 265.897339,516.128296 265.897339,516.128296 
	C279.641357,517.377014 279.641327,517.377014 279.641144,503.987732 
	C279.641052,498.740936 279.641144,493.494141 279.641144,487.483948 
	C284.334442,487.483948 288.566376,487.483948 293.527832,487.167908 
	C294.209076,483.550262 294.160767,480.248718 294.112457,476.947144 
	C294.442139,474.092102 293.021729,473.072418 290.324493,473.143738 
	C287.032776,473.230743 283.737000,473.164398 280.181152,473.164398 
	C280.181152,468.277161 280.181152,463.857391 280.181152,459.047943 
	C284.823181,459.047943 289.378143,459.047943 294.705963,459.047943 
	C294.705963,461.638397 294.705658,464.226257 294.706055,466.814148 
	C294.707092,473.608612 294.707214,473.608612 302.259827,472.446075 
	C302.259827,470.237701 302.142120,467.940460 302.283356,465.659271 
	C302.617126,460.268982 304.288300,458.442841 309.748566,458.469330 
	C341.381195,458.622864 373.024231,458.487762 404.641266,459.312592 
	C423.720520,459.810364 441.124115,466.346863 456.353180,478.120209 
	C458.455902,479.745819 460.559448,481.424408 462.386566,483.341553 
	C466.502441,487.660339 466.427643,491.220062 461.481659,494.582733 
	C455.307098,498.780701 448.684448,502.318359 442.269043,506.164062 
	C440.437531,507.261963 438.653900,508.439850 435.554230,510.398956 
	C442.328705,512.633240 448.001801,514.504272 455.006714,516.814575 
	C446.104065,525.659546 437.558228,534.150024 429.012390,542.640442 
	C428.439850,542.381470 427.867279,542.122498 427.294739,541.863525 
	C426.911804,540.251770 426.054230,538.589661 426.219116,537.036072 
	C427.917877,521.030396 417.458099,507.474182 399.179016,505.368225 
	C385.694611,503.814606 371.925537,504.698914 358.282562,504.580231 
	C355.200897,504.553406 353.947357,506.345642 353.960419,509.411774 
	C354.036316,527.230835 354.073730,545.050354 354.016388,562.869385 
	C354.003082,567.006104 355.906281,568.366821 359.853577,568.320679 
	C371.623535,568.183350 383.396149,568.271362 395.729614,569.314087 
	C391.296143,572.859924 387.093048,576.750916 382.388702,579.890808 
	C363.656433,592.393799 349.173889,609.099731 335.909729,626.909485 
	C329.770691,635.152405 327.484161,644.909180 328.354858,656.108765 
	C328.355469,671.573242 328.475464,686.204224 328.595428,700.835205 
	C328.447968,702.128601 328.300476,703.422058 328.098969,705.189209 
	C321.711334,705.189209 315.473450,705.363525 309.251434,705.125000 
	C305.407043,704.977600 303.314392,702.456360 302.860565,698.690002 
	C302.584167,696.395996 302.484741,694.080688 302.277100,691.404907 
	C299.935791,691.404907 297.714691,691.404907 294.921997,691.404907 
	C294.921997,695.768860 294.921997,700.309631 294.921997,705.078979 
	C284.826385,705.078979 275.295471,705.078979 264.407104,705.078979 
	C265.404205,700.015015 266.300049,695.465454 267.693848,691.075439 
	C268.458344,691.129150 268.724884,691.023193 268.991425,690.917236 
	C269.440826,690.869263 269.890228,690.821350 270.761963,690.996521 
	C271.454651,691.122070 271.724945,691.024536 271.995270,690.926941 
	C274.202545,690.757019 276.409851,690.587097 279.333252,690.080933 
	C280.392700,685.350159 280.735992,680.955505 281.079285,676.560913 
	C285.040955,676.431152 289.002594,676.301453 293.576080,676.020020 
	C294.266571,675.784607 294.417694,675.693481 294.410095,675.618347 
	C294.388733,675.407349 294.301941,675.202942 294.240936,674.995972 
	C294.304749,671.288940 294.368530,667.581909 294.631958,663.176208 
	C294.967834,662.101501 295.104034,661.725525 295.645020,661.479370 
	C298.099243,661.609192 300.148712,661.609192 302.192749,661.609192 
	C302.192749,656.745422 302.192749,652.390320 302.192749,647.719849 
	C299.528656,647.719849 297.243225,647.719849 294.987427,647.478149 
	C294.759705,646.843445 294.502380,646.450500 294.245056,646.057556 
	C294.069824,642.038147 293.894623,638.018799 293.178040,633.357361 
	C283.680481,632.513672 274.724335,632.311951 265.768188,632.110229 
	C265.647980,628.710754 265.527771,625.311340 265.924805,621.358887 
	C269.383484,620.516174 272.320099,620.155029 275.267639,619.954712 
	C278.976807,619.702759 281.158966,618.197693 281.005005,614.093506 
	C280.874573,610.615417 281.046570,607.126038 281.084717,603.641663 
	C284.802460,603.549072 288.520233,603.456543 292.887390,603.585083 
	C293.815826,603.232910 294.094910,602.659668 294.373962,602.086365 
	C294.302216,598.598450 294.230469,595.110535 294.405212,590.987732 
	C295.440002,589.921021 296.228271,589.489197 297.432373,588.985718 
	C299.275543,588.914062 300.702850,588.914062 302.247925,588.914062 
	C302.247925,583.929321 302.247925,579.545715 302.247925,575.020447 
	C300.292450,574.882568 298.651764,574.766846 296.911774,574.524292 
	C296.473785,574.240051 296.201111,574.317139 295.714233,574.711548 
	C295.246368,574.846741 295.058746,574.899170 294.543030,575.055786 
	C294.293945,577.130859 294.373016,579.101746 294.533630,581.503174 
	C294.972717,584.187317 295.330231,586.440918 295.203247,588.760254 
	C294.073914,588.921082 293.429077,589.016174 292.784271,589.111267 
	C292.379730,589.111267 291.975189,589.111267 290.949738,588.794434 
	C289.192322,588.316345 288.017578,587.885559 286.925903,588.040405 
	C282.001343,588.738831 280.465424,586.557129 280.872986,581.865723 
	C281.040619,579.936096 280.081390,577.908569 279.634735,575.925598 
M294.825989,503.595276 
	C294.825989,507.818420 294.825989,512.041565 294.825989,516.249451 
	C297.579529,516.249451 299.789551,516.249451 302.132294,516.249451 
	C302.132294,511.519348 302.132294,507.163208 302.132294,502.182892 
	C299.594330,502.410980 297.378662,502.610107 294.825989,503.595276 
z"/>
<path fill="#358CD3" opacity="1.000000" stroke="none" 
	d="
M507.053101,565.977051 
	C521.421204,570.296082 534.800110,575.556396 545.570984,586.016113 
	C555.026245,595.198181 561.086426,606.116028 562.376160,619.199341 
	C563.747009,633.106628 565.270508,647.262573 559.916626,660.695190 
	C550.164673,685.162598 531.342102,698.424866 505.867828,702.955383 
	C482.227264,707.159790 458.363159,705.576111 434.559540,705.699280 
	C424.761169,705.749939 414.957764,706.150940 405.170715,706.661682 
	C397.027405,707.086548 393.067413,703.032898 393.399384,694.445984 
	C393.746765,685.461609 393.940186,676.468445 394.023712,667.477478 
	C394.085266,660.852356 395.488220,659.183960 402.202423,659.170227 
	C426.201843,659.121155 450.201691,659.214050 474.200684,659.100220 
	C480.008453,659.072693 485.902863,658.980713 491.601227,658.005493 
	C503.630951,655.946838 509.612152,649.290527 510.803223,637.703369 
	C511.948578,626.561462 506.629303,617.606689 495.537231,613.572144 
	C486.320862,610.219910 476.790222,607.734192 467.412811,604.819580 
	C465.876007,604.341919 464.411560,603.631348 462.040863,602.677246 
	C465.159454,598.860352 467.791443,595.543579 470.524750,592.312561 
	C477.335480,584.261658 483.712006,575.952148 486.889618,565.676453 
	C487.877045,562.483398 490.089874,561.621094 493.117584,562.379639 
	C497.640625,563.512817 502.148987,564.704529 507.053101,565.977051 
z"/>
<path fill="#FAFAFB" opacity="1.000000" stroke="none" 
	d="
M1022.770020,516.382324 
	C1020.010071,507.102844 1017.365417,498.208984 1014.448486,488.399780 
	C1023.272827,488.399780 1031.501587,488.266052 1039.711914,488.592621 
	C1040.598999,488.627899 1041.778198,491.237000 1042.150391,492.810974 
	C1047.511108,515.479309 1052.753418,538.175659 1058.038208,560.862000 
	C1058.335571,562.138550 1058.751953,563.387268 1059.543701,566.153809 
	C1061.881836,556.982605 1063.885986,549.228333 1065.833374,541.459900 
	C1069.922852,525.146729 1074.079834,508.849274 1077.971313,492.488800 
	C1078.739502,489.259155 1080.037354,488.140045 1083.325806,488.271362 
	C1089.480591,488.517120 1095.665894,488.592285 1101.811646,488.253387 
	C1105.697266,488.039093 1107.243408,489.285828 1108.163940,493.136536 
	C1113.576172,515.779846 1119.285767,538.352173 1124.913818,560.943726 
	C1125.223755,562.187866 1125.700439,563.390442 1126.484131,565.790100 
	C1131.512573,544.056396 1136.223389,523.535278 1141.030884,503.036713 
	C1142.159546,498.223877 1142.213623,491.815247 1145.329224,489.205109 
	C1148.216187,486.786560 1154.536255,488.437408 1159.345581,488.352386 
	C1162.474976,488.297028 1165.606201,488.342010 1169.514648,488.342010 
	C1168.959961,490.450226 1168.594604,491.987610 1168.151245,493.502167 
	C1158.992188,524.791565 1149.756836,556.059021 1140.750366,587.392212 
	C1139.720215,590.976135 1138.183716,592.119629 1134.558350,591.948975 
	C1128.241211,591.651672 1121.892212,591.681580 1115.571777,591.943665 
	C1112.134399,592.086182 1110.679077,591.061584 1109.803345,587.562805 
	C1104.710938,567.215149 1099.320312,546.942078 1094.021484,526.646057 
	C1093.619995,525.108398 1093.149780,523.588806 1091.829834,521.980591 
	C1089.907349,529.135559 1087.948120,536.281006 1086.069824,543.447571 
	C1082.230469,558.097229 1078.330200,572.732483 1074.700684,587.434387 
	C1073.879639,590.760071 1072.660400,592.151001 1069.042969,591.964355 
	C1062.728394,591.638611 1056.373291,591.628601 1050.058594,591.949158 
	C1046.251953,592.142395 1044.546997,590.986938 1043.465820,587.195068 
	C1036.759277,563.675537 1029.776489,540.234802 1022.770020,516.382324 
z"/>
<path fill="#FAFBFC" opacity="1.000000" stroke="none" 
	d="
M1192.822998,498.823547 
	C1212.539429,481.730347 1235.886963,482.611847 1258.091309,501.604462 
	C1258.091309,497.070007 1258.091309,493.080536 1258.091309,488.722168 
	C1267.316650,488.722168 1275.855835,488.722168 1284.633789,488.722168 
	C1284.633789,523.007568 1284.633789,557.078552 1284.633789,591.507324 
	C1276.097290,591.507324 1267.679810,591.507324 1258.535522,591.507324 
	C1258.535522,587.455444 1258.535522,583.278503 1258.535522,579.122925 
	C1257.516968,579.122925 1257.067139,578.995361 1256.946411,579.140869 
	C1236.958862,603.232422 1188.797729,599.040039 1178.717041,555.211121 
	C1173.960327,534.529358 1177.150391,515.114075 1192.822998,498.823547 
M1230.545654,509.892822 
	C1228.571289,510.121429 1226.544556,510.138580 1224.630493,510.611267 
	C1205.467285,515.343506 1197.125610,540.000916 1208.722412,557.838501 
	C1214.430298,566.618164 1222.571045,571.167786 1233.180054,570.271484 
	C1244.131470,569.346191 1252.258545,563.642456 1255.745972,553.348206 
	C1257.753540,547.422668 1258.276855,540.584656 1257.761230,534.297363 
	C1256.600464,520.144836 1245.677734,510.531799 1230.545654,509.892822 
z"/>
<path fill="#FBFBFC" opacity="1.000000" stroke="none" 
	d="
M804.945068,578.984863 
	C804.945557,583.435425 804.945557,587.388855 804.945557,591.594788 
	C796.024841,591.594788 787.602234,591.594788 778.485229,591.594788 
	C778.485229,587.317261 778.485229,583.127502 778.485229,578.398804 
	C777.313599,579.036865 776.811707,579.157104 776.549438,579.475098 
	C757.989502,601.972534 711.988342,599.727051 699.798096,558.962952 
	C694.147949,540.068787 695.689575,521.578003 707.524353,505.086792 
	C723.448303,482.897644 755.479187,480.207397 775.115967,499.083191 
	C775.907410,499.843903 776.718262,500.584534 778.444092,502.198822 
	C778.444092,496.989746 778.444092,492.960022 778.444092,488.651306 
	C787.492249,488.651306 795.900024,488.651306 804.944641,488.651306 
	C804.944641,518.669250 804.944641,548.578491 804.945068,578.984863 
M740.660522,511.870636 
	C720.316162,520.230225 719.648438,549.260193 731.932495,562.059448 
	C743.545959,574.159851 763.122437,572.945251 772.854858,559.268005 
	C777.862610,552.230530 778.958557,544.293823 778.175537,535.944031 
	C776.359497,516.578125 759.955627,505.726959 740.660522,511.870636 
z"/>
<path fill="#FCFCFD" opacity="1.000000" stroke="none" 
	d="
M975.179199,545.005920 
	C975.126587,540.178284 975.292114,535.833618 974.981018,531.523315 
	C973.951599,517.261230 965.319763,508.959991 951.976746,509.175293 
	C938.133301,509.398682 929.263611,518.288696 929.064392,532.796814 
	C928.822021,550.449463 929.001343,568.107910 928.998291,585.763855 
	C928.997986,587.578003 928.998230,589.392151 928.998230,591.530029 
	C920.316528,591.530029 911.922546,591.530029 903.163330,591.530029 
	C903.163330,545.762207 903.163330,500.050812 903.163330,454.007874 
	C911.638733,454.007874 920.183044,454.007874 928.995483,454.007874 
	C928.995483,469.272614 928.995483,484.385071 928.995483,499.954407 
	C932.441406,497.313354 935.306763,494.625732 938.604980,492.666840 
	C966.075256,476.351288 998.920837,492.636658 1000.820435,524.375793 
	C1002.149231,546.577515 1001.076843,568.922913 1001.076843,591.531250 
	C992.562927,591.531250 984.186584,591.531250 975.179016,591.531250 
	C975.179016,576.043640 975.179016,560.774170 975.179199,545.005920 
z"/>
<path fill="#F9F9FB" opacity="1.000000" stroke="none" 
	d="
M590.198181,465.369690 
	C591.145996,463.730347 592.096741,461.518463 593.038391,461.522339 
	C611.854858,461.599792 630.798340,460.649506 649.456665,462.509583 
	C678.766785,465.431549 694.071838,494.337006 681.059082,520.211426 
	C674.785034,532.686768 663.815491,539.143738 650.431702,540.789978 
	C640.564453,542.003723 630.496765,541.590942 620.518066,541.892944 
	C619.385864,541.927246 618.251770,541.897522 616.688477,541.897522 
	C616.688477,558.583435 616.688477,574.833069 616.688477,591.472290 
	C607.844055,591.472290 599.442200,591.472290 590.196899,591.472290 
	C590.196899,549.639526 590.196899,507.734161 590.198181,465.369690 
M630.487183,482.945129 
	C626.037903,482.945129 621.588684,482.945129 616.980469,482.945129 
	C616.980469,495.729431 616.980469,507.942841 616.980469,519.866821 
	C626.456604,519.866821 635.662659,520.638550 644.675415,519.649109 
	C653.632019,518.665833 658.223755,511.777222 658.291565,502.104370 
	C658.363586,491.818268 654.049194,485.618713 644.890869,483.855988 
	C640.522156,483.015137 635.952942,483.216217 630.487183,482.945129 
z"/>
<path fill="#FAFAFC" opacity="1.000000" stroke="none" 
	d="
M1373.448853,573.590881 
	C1364.469727,594.979065 1355.604736,616.000793 1346.923340,637.098083 
	C1345.707275,640.053406 1344.121094,641.000427 1340.997314,640.905212 
	C1333.398926,640.673645 1325.788574,640.829895 1317.588379,640.829895 
	C1318.308716,638.840942 1318.730591,637.454956 1319.301514,636.133301 
	C1325.379150,622.066895 1331.395630,607.972839 1337.637817,593.979553 
	C1339.100464,590.700317 1339.262573,587.944336 1337.843628,584.537903 
	C1325.296509,554.415344 1312.936890,524.214783 1300.527954,494.034760 
	C1299.899780,492.506897 1299.327881,490.955872 1298.314331,488.345795 
	C1303.191895,488.345795 1307.556274,488.295776 1311.919067,488.358734 
	C1317.064453,488.432983 1323.458618,486.796021 1327.000610,489.244171 
	C1330.529785,491.683411 1331.300659,498.224548 1333.099854,503.034882 
	C1339.568359,520.327515 1345.955200,537.650574 1352.391357,554.955261 
	C1352.901245,556.326416 1353.552124,557.645020 1354.512573,559.848633 
	C1355.822021,556.440002 1356.829468,553.868164 1357.800049,551.282471 
	C1365.110718,531.807617 1372.539185,512.375244 1379.609375,492.813416 
	C1380.951172,489.100830 1382.748535,488.109619 1386.446289,488.256561 
	C1393.763062,488.547424 1401.099609,488.342468 1409.332642,488.342468 
	C1397.295166,516.962341 1385.458252,545.105347 1373.448853,573.590881 
z"/>
<path fill="#378AD1" opacity="1.000000" stroke="none" 
	d="
M328.882782,701.021240 
	C328.475464,686.204224 328.355469,671.573242 328.407440,656.533813 
	C329.234833,654.844360 330.137299,653.630798 330.508667,652.272095 
	C336.271820,631.185364 348.250336,614.219055 365.747284,601.506042 
	C398.236328,577.900024 427.938995,551.310425 454.483917,521.187500 
	C457.096344,518.222900 459.568542,515.134827 462.631256,511.476440 
	C458.527344,509.939880 455.058990,508.641266 450.314240,506.864777 
	C461.292419,499.908875 471.417297,493.493652 482.315643,486.588348 
	C482.315643,500.418915 482.315643,513.336792 482.315643,526.254639 
	C481.901794,526.472656 481.487976,526.690613 481.074127,526.908569 
	C477.908997,523.106262 474.743866,519.304016 470.992950,514.798035 
	C468.985657,517.531433 467.782776,518.999756 466.761597,520.585083 
	C445.833282,553.076965 420.186493,581.311340 390.054596,605.474243 
	C362.286957,627.741333 351.595917,664.598389 363.258759,698.223083 
	C363.848755,699.924194 364.391022,701.641785 365.204407,704.105713 
	C362.929138,704.311462 361.217743,704.590149 359.504791,704.599976 
	C351.505371,704.645752 343.500916,704.460388 335.508179,704.695374 
	C332.458191,704.785034 330.405640,703.972473 328.882782,701.021240 
z"/>
<path fill="#F9FAFB" opacity="1.000000" stroke="none" 
	d="
M834.427917,468.334412 
	C834.427734,466.397003 834.427734,464.919067 834.427734,463.111694 
	C843.392029,463.111694 851.961243,463.111694 860.911194,463.111694 
	C860.911194,471.398315 860.911194,479.518097 860.911194,488.236176 
	C868.654785,488.236176 876.039490,488.236176 883.727783,488.236176 
	C883.727783,495.737549 883.727783,502.636292 883.727783,509.867371 
	C876.286926,509.867371 868.990479,509.867371 861.559631,509.867371 
	C861.295776,510.728485 860.953857,511.325775 860.952759,511.923706 
	C860.922791,528.083984 860.862915,544.244629 860.959229,560.404358 
	C860.996887,566.729614 863.914062,569.384949 870.745300,569.750244 
	C872.905029,569.865784 875.075928,569.772217 877.241760,569.773071 
	C879.356689,569.773987 881.471619,569.773254 883.816772,569.773254 
	C883.816772,577.278992 883.816772,584.209778 883.816772,591.695618 
	C872.776001,591.736084 861.821716,593.117676 851.240845,589.137390 
	C841.088501,585.318359 835.815125,577.399780 835.103455,567.058533 
	C834.270325,554.951294 834.570129,542.764221 834.440918,530.611084 
	C834.370178,523.955017 834.428345,517.297607 834.428345,510.188324 
	C830.427551,510.188324 826.664978,510.188324 822.474976,510.188324 
	C822.474976,502.861298 822.474976,495.973297 822.474976,488.558777 
	C826.152222,488.558777 829.905518,488.558777 834.428101,488.558777 
	C834.428101,481.642548 834.428101,475.218201 834.427917,468.334412 
z"/>
<path fill="#368BD2" opacity="1.000000" stroke="none" 
	d="
M548.663452,485.998688 
	C548.654175,491.329956 548.589600,496.162506 548.654114,500.993317 
	C548.706177,504.890808 547.045105,506.864929 542.996460,506.850220 
	C528.501160,506.797577 514.005371,506.783630 499.510315,506.864563 
	C496.226166,506.882904 495.101257,505.418182 495.153442,502.310059 
	C495.301758,493.481598 495.321564,484.650970 495.386444,475.821167 
	C495.399536,474.035767 495.388306,472.250153 495.388306,469.019684 
	C490.010193,472.306580 485.701782,474.934418 481.398590,477.570770 
	C474.532593,481.777313 474.676758,481.627075 468.932983,476.260040 
	C463.756683,471.423248 458.221497,466.970612 452.154846,461.755615 
	C454.630402,461.595428 456.387817,461.383301 458.145264,461.382721 
	C485.803253,461.373596 513.461243,461.382690 541.119263,461.410187 
	C547.528259,461.416565 548.590149,462.492615 548.649414,469.004425 
	C548.699463,474.502289 548.662354,480.000916 548.663452,485.998688 
z"/>
<path fill="#F9F9FB" opacity="1.000000" stroke="none" 
	d="
M472.424927,531.413940 
	C474.215576,530.329163 475.818237,529.548645 477.420898,528.768127 
	C478.276276,530.585632 479.782593,532.365479 479.890472,534.226318 
	C481.847839,567.981384 466.159363,593.220703 434.849884,606.114014 
	C427.199860,609.264221 419.072296,611.349976 411.033875,613.418396 
	C407.476074,614.333801 403.593506,613.987000 399.858337,614.213135 
	C399.654205,613.761047 399.450073,613.308899 399.245911,612.856812 
	C400.903351,611.126343 402.517975,609.352417 404.225006,607.672424 
	C418.221497,593.897217 432.835632,580.686890 446.043976,566.194641 
	C455.727142,555.570251 463.572479,543.270935 472.424927,531.413940 
z"/>
<path fill="#3786CC" opacity="1.000000" stroke="none" 
	d="
M626.687744,702.061768 
	C632.534058,698.899902 635.424805,694.331543 634.893127,688.028015 
	C634.345764,681.538696 630.022888,678.028625 624.325806,676.074646 
	C618.505432,674.078369 612.533813,672.525452 606.699402,670.567017 
	C595.520508,666.814514 590.216736,659.870605 590.659729,649.873352 
	C591.101807,639.896545 597.589661,632.125732 608.356873,629.728699 
	C617.528076,627.687012 626.610779,628.071899 634.604736,633.966064 
	C639.211914,637.363098 642.030640,641.872803 642.666565,648.020264 
	C638.201050,649.059509 634.793762,649.878479 632.016724,644.460083 
	C626.668701,634.025269 609.365601,632.975037 602.014404,642.140869 
	C596.485779,649.034180 599.762085,659.500427 608.783997,662.907593 
	C614.377136,665.019897 620.154114,666.678284 625.913635,668.311035 
	C641.432495,672.710388 644.636658,682.434937 643.414856,691.773926 
	C641.886292,703.458374 631.219116,711.579041 618.170288,711.345032 
	C609.649963,711.192261 601.441345,709.722595 595.603577,702.747559 
	C593.529480,700.269470 592.018738,697.162231 590.917297,694.102295 
	C590.452332,692.810791 591.656006,689.525208 592.192688,689.504333 
	C594.710510,689.406677 597.836426,687.755249 599.526489,691.529236 
	C604.893250,703.513733 613.366699,706.837158 626.687744,702.061768 
z"/>
<path fill="#3786CC" opacity="1.000000" stroke="none" 
	d="
M718.564941,676.277466 
	C719.306335,707.459167 691.306885,717.398193 672.009827,708.247742 
	C659.017029,702.086609 652.324585,686.471069 655.800415,670.893982 
	C659.221436,655.562927 670.797180,646.265869 686.504333,646.234070 
	C702.359802,646.201965 714.052856,655.277588 717.626526,670.437256 
	C718.044983,672.212036 718.247192,674.037720 718.564941,676.277466 
M666.896423,664.618896 
	C663.097046,671.382446 662.967285,678.741882 664.326355,685.981812 
	C665.909485,694.415344 670.992859,700.303162 679.407410,702.986633 
	C693.932129,707.618408 707.666260,698.206177 709.703857,682.194824 
	C711.244446,670.088806 705.362305,659.015564 695.376526,655.223206 
	C684.671753,651.157837 673.959106,654.498108 666.896423,664.618896 
z"/>
<path fill="#3786CC" opacity="1.000000" stroke="none" 
	d="
M958.906372,680.810181 
	C957.196899,708.889648 929.753967,717.405823 911.142395,707.417053 
	C899.075134,700.940735 893.049438,685.259583 896.717773,670.106812 
	C900.172363,655.836609 911.352539,646.596191 925.582581,646.250061 
	C946.426331,645.742981 958.908081,658.512695 958.906372,680.810181 
M904.552917,681.883057 
	C905.588928,701.050049 922.946838,706.827393 934.719299,702.799683 
	C949.392700,697.779358 955.361938,677.631958 946.152588,663.438721 
	C942.360962,657.595215 936.936646,654.425903 930.050415,653.859070 
	C913.710327,652.514160 903.263855,663.623718 904.552917,681.883057 
z"/>
<path fill="#3786CC" opacity="1.000000" stroke="none" 
	d="
M974.677490,710.277954 
	C973.952332,708.205688 973.308167,706.305176 973.299500,704.401794 
	C973.221985,687.412781 973.208740,670.423096 973.308655,653.434387 
	C973.324158,650.802795 971.843811,647.287048 977.038025,647.023438 
	C981.919495,646.775696 982.083008,649.433777 981.936523,652.885193 
	C981.917969,653.322571 982.216980,653.773438 982.534546,654.702759 
	C984.605286,653.061707 986.352295,651.338196 988.398193,650.114258 
	C997.393494,644.732849 1006.887146,644.397949 1016.089294,649.015076 
	C1024.986572,653.479309 1028.537598,661.742859 1028.763550,671.306946 
	C1029.038818,682.960022 1028.774048,694.624878 1028.903198,706.282837 
	C1028.939087,709.515259 1027.748413,710.717163 1024.524170,710.719727 
	C1021.167542,710.722412 1020.257324,709.206665 1020.284607,706.123352 
	C1020.383179,694.964722 1020.507874,683.800293 1020.259888,672.646118 
	C1019.973022,659.742432 1012.602051,653.065125 999.818176,653.641907 
	C991.198914,654.030884 985.022644,658.942566 982.987305,667.367249 
	C982.290405,670.252136 981.960999,673.285706 981.918701,676.257751 
	C981.786072,685.583313 981.877075,694.912048 981.867554,704.239502 
	C981.860779,710.806824 981.850708,710.806824 974.677490,710.277954 
z"/>
<path fill="#3786CC" opacity="1.000000" stroke="none" 
	d="
M758.349243,671.997742 
	C758.339600,664.836365 758.445496,658.171509 758.269043,651.514038 
	C758.185364,648.355652 759.143311,647.090759 762.497070,647.039795 
	C766.184326,646.983765 766.955078,648.562378 766.919067,651.845886 
	C766.796875,663.002747 766.662415,674.169128 766.983093,685.318909 
	C767.427307,700.764343 782.410645,709.031128 795.985107,701.529785 
	C802.908813,697.703674 805.223206,691.329285 805.304382,683.922607 
	C805.421265,673.264832 805.466003,662.603210 805.301392,651.947021 
	C805.244141,648.239990 806.526001,646.888611 810.240601,647.064514 
	C813.092651,647.199646 813.966553,648.317505 813.957947,651.021667 
	C813.899536,669.341492 813.905334,687.661865 813.978027,705.981689 
	C813.989807,708.944641 813.322327,710.631958 809.863098,710.715454 
	C806.263550,710.802246 805.045837,709.321716 805.353760,705.964478 
	C805.441833,705.004028 805.211304,704.014404 805.087463,702.583679 
	C804.245972,703.091980 803.668152,703.311462 803.260254,703.706421 
	C794.674011,712.020325 784.635498,713.573181 773.727661,709.575623 
	C762.883484,705.601196 759.119019,696.649536 758.438721,685.984497 
	C758.153076,681.505066 758.363831,676.993958 758.349243,671.997742 
z"/>
<path fill="#3785CB" opacity="1.000000" stroke="none" 
	d="
M1080.279785,662.020203 
	C1075.726196,653.785156 1064.792603,651.020447 1057.258667,655.877991 
	C1051.381958,659.667053 1050.890015,667.048767 1056.838623,670.647888 
	C1061.025146,673.180908 1066.006104,674.419495 1070.666016,676.145020 
	C1073.940308,677.357361 1077.413574,678.114929 1080.551025,679.598145 
	C1092.129639,685.071960 1093.519897,699.072449 1083.381104,706.864624 
	C1073.413452,714.525330 1054.759399,712.696045 1046.855957,702.955139 
	C1044.697266,700.294739 1043.631226,696.747986 1041.815430,693.110535 
	C1047.011475,692.071655 1050.282715,690.991150 1052.641357,696.394836 
	C1056.566650,705.386841 1073.045044,707.002075 1079.457642,699.522278 
	C1083.819458,694.434326 1081.790771,687.961243 1074.788940,685.313293 
	C1071.059814,683.903076 1067.133179,683.021423 1063.318604,681.828369 
	C1060.301270,680.884644 1057.201294,680.084900 1054.345337,678.770630 
	C1048.768188,676.204224 1044.705200,672.292603 1044.148926,665.687622 
	C1043.574951,658.872131 1046.264526,653.798401 1051.925415,650.040222 
	C1062.501709,643.018799 1079.991577,645.466980 1086.183228,655.214172 
	C1087.967407,658.022888 1088.739258,661.474609 1090.189209,665.178040 
	C1085.685303,665.715332 1081.920898,667.814148 1080.279785,662.020203 
z"/>
<path fill="#3785CB" opacity="1.000000" stroke="none" 
	d="
M842.950562,677.999268 
	C842.954895,683.660767 842.842468,688.825928 842.993347,693.983398 
	C843.178467,700.312927 845.573059,702.671570 851.829163,703.065308 
	C852.659119,703.117615 853.493652,703.095398 854.325989,703.112000 
	C860.469055,703.234253 860.634949,703.452148 859.279907,711.035767 
	C854.042908,710.483459 848.503662,710.592957 843.375244,709.195251 
	C835.769653,707.122437 834.431824,700.421265 834.321228,693.648560 
	C834.141907,682.661682 834.130432,671.667908 834.316345,660.681580 
	C834.385803,656.574341 833.841675,653.919922 828.764771,654.225525 
	C827.698975,654.289673 825.643127,651.953918 825.595947,650.666992 
	C825.554382,649.536743 827.754944,647.266602 828.848938,647.335999 
	C833.496338,647.630554 834.756104,645.544128 834.295776,641.393433 
	C834.095154,639.583740 834.386353,637.722534 834.226257,635.904785 
	C833.920593,632.435425 835.376648,631.234924 838.842163,631.232117 
	C842.260376,631.229370 842.983032,632.670471 843.023621,635.753845 
	C843.172302,647.069153 843.264771,647.067932 854.313904,647.126465 
	C860.426086,647.158813 860.673584,647.481750 859.327087,654.463623 
	C855.500549,654.463623 851.537537,654.600403 847.588745,654.422058 
	C844.195801,654.268799 842.783936,655.490601 842.898071,659.018738 
	C843.097107,665.173096 842.951660,671.338684 842.950562,677.999268 
z"/>
<path fill="#378AD1" opacity="1.000000" stroke="none" 
	d="
M732.913818,674.000000 
	C732.913879,659.507141 732.910828,645.514221 732.915527,631.521362 
	C732.917908,624.364258 733.035583,624.273621 740.599670,625.605408 
	C740.733459,626.786621 741.003479,628.064819 741.004639,629.343323 
	C741.027893,654.663757 741.012268,679.984253 741.029785,705.304688 
	C741.031616,707.936462 741.153992,710.285278 737.313293,710.274414 
	C734.143188,710.265381 732.828857,709.300171 732.871338,705.983276 
	C733.005859,695.490417 732.916626,684.994629 732.913818,674.000000 
z"/>
<path fill="#3786CC" opacity="1.000000" stroke="none" 
	d="
M881.645630,665.002563 
	C881.643860,678.787842 881.597961,692.073914 881.674072,705.359253 
	C881.692200,708.527466 881.469971,710.775757 877.262085,710.733337 
	C872.965759,710.690063 873.001953,708.225098 873.009460,705.181824 
	C873.053101,687.412170 873.081665,669.642029 872.972290,651.872925 
	C872.952271,648.623108 873.677979,647.035278 877.362488,647.045593 
	C881.169617,647.056274 881.755249,648.959351 881.668091,652.048462 
	C881.550964,656.196838 881.643555,660.351257 881.645630,665.002563 
z"/>
<path fill="#F1F1F6" opacity="1.000000" stroke="none" 
	d="
M236.745789,600.527954 
	C235.132828,601.897888 233.559204,603.558350 231.914459,603.632141 
	C221.796051,604.085938 221.796432,603.966797 222.047653,593.930298 
	C222.088623,592.293213 222.053421,590.654236 222.053421,588.933838 
	C217.075455,588.933838 212.453522,588.933838 207.945724,588.933838 
	C207.676392,588.434509 207.388931,588.152039 207.393860,587.874817 
	C207.669540,572.375916 203.694656,574.020020 222.198914,574.758789 
	C222.198914,578.998474 222.198914,583.270325 222.198914,588.123535 
	C225.521606,588.347900 228.468292,588.829834 231.381271,588.675476 
	C235.445389,588.460022 237.315292,589.843750 236.795517,594.095520 
	C236.554840,596.064331 236.753036,598.086853 236.745789,600.527954 
z"/>
<path fill="#E0E1ED" opacity="1.000000" stroke="none" 
	d="
M293.580627,559.246521 
	C292.527618,559.689819 291.062073,560.858826 289.557709,560.911072 
	C283.336365,561.127136 277.100952,560.913086 270.876068,561.069214 
	C269.220276,561.110718 267.583405,561.906982 265.685242,562.616821 
	C264.210541,561.983154 263.050140,560.444153 261.754547,560.320435 
	C258.326691,559.993042 254.840317,560.278320 250.704956,560.645752 
	C245.650085,560.967102 241.267471,560.962585 236.884857,560.958130 
	C241.337585,560.334839 245.790329,559.711548 250.531082,559.047974 
	C250.531082,554.943542 250.531082,550.579163 250.531082,545.687439 
	C248.048004,545.687439 245.964493,545.687439 243.592133,545.274475 
	C245.697739,544.598816 248.092178,544.336060 250.486633,544.073364 
	C255.324585,544.580688 260.162537,545.088013 265.572815,545.655273 
	C265.572815,550.101929 265.572815,554.650574 265.572815,559.458679 
	C275.141754,559.458679 284.145966,559.458679 293.580627,559.246521 
z"/>
<path fill="#F1F1F6" opacity="1.000000" stroke="none" 
	d="
M237.022491,662.062134 
	C237.022491,666.664612 237.022491,671.267029 237.022491,676.150269 
	C231.658661,676.150269 227.063553,676.150269 222.435638,676.150269 
	C222.297409,675.909424 221.984756,675.620911 221.995483,675.344971 
	C222.161041,671.084656 220.789886,665.315063 223.011978,662.993347 
	C225.218170,660.688232 231.050003,661.853088 235.897919,661.406921 
	C236.729965,661.528748 236.902802,661.776917 237.022491,662.062134 
z"/>
<path fill="#F1F1F6" opacity="1.000000" stroke="none" 
	d="
M250.780853,662.333130 
	C255.514236,662.101562 260.247620,661.870056 265.324646,661.621704 
	C265.324646,666.717957 265.324646,671.249451 265.324646,676.116699 
	C260.562134,676.116699 255.977798,676.116699 250.534882,676.116699 
	C250.750092,671.738464 250.965591,667.354126 250.995239,662.623291 
	C250.809402,662.276794 250.780853,662.333130 250.780853,662.333130 
z"/>
<path fill="#F1F1F6" opacity="1.000000" stroke="none" 
	d="
M250.699982,598.475647 
	C251.020920,595.187256 250.595047,590.333801 251.856583,589.846191 
	C255.205704,588.551697 259.289337,588.972839 263.066650,589.107910 
	C263.951233,589.139526 265.010101,590.619751 265.559204,591.660217 
	C265.979858,592.457275 265.746826,593.610779 265.765717,594.606506 
	C265.939178,603.751282 262.337189,606.469971 253.471191,603.421814 
	C252.188446,602.980835 251.620926,600.459534 250.699982,598.475647 
z"/>
<path fill="#E0E1ED" opacity="1.000000" stroke="none" 
	d="
M293.926636,646.365356 
	C294.502380,646.450500 294.759705,646.843445 294.921112,647.953491 
	C294.963531,652.896851 295.101898,657.123169 295.240265,661.349487 
	C295.104034,661.725525 294.967834,662.101501 294.641510,662.712036 
	C290.902527,662.671448 287.352722,662.175659 283.804993,662.189758 
	C280.862396,662.201477 279.482239,661.135864 279.507263,658.199890 
	C279.536621,654.760803 279.514160,651.321350 279.514160,647.562195 
	C284.526581,647.245972 289.067413,646.959534 293.926636,646.365356 
z"/>
<path fill="#F1F1F6" opacity="1.000000" stroke="none" 
	d="
M200.882019,545.887207 
	C198.107697,545.886902 195.785431,545.886902 193.154907,545.886902 
	C193.154907,540.928589 193.154907,536.234192 193.154907,530.931824 
	C195.296600,530.931824 197.088531,530.962769 198.879120,530.926575 
	C207.788864,530.746643 207.529266,530.750000 207.847961,539.409363 
	C208.032791,544.430969 206.407501,546.637451 200.882019,545.887207 
z"/>
<path fill="#F9F9FB" opacity="1.000000" stroke="none" 
	d="
M221.627045,501.207092 
	C216.992050,501.871368 212.601028,502.167450 207.742462,502.495026 
	C207.742462,497.239380 207.742462,492.731079 207.742462,487.929138 
	C212.432327,487.929138 217.008072,487.929138 221.871033,487.929138 
	C221.871033,492.304840 221.871033,496.571869 221.627045,501.207092 
z"/>
<path fill="#F9FAFB" opacity="1.000000" stroke="none" 
	d="
M255.267303,473.165771 
	C251.905518,473.501251 250.488708,472.395691 250.637085,469.291168 
	C250.794235,466.003174 250.672363,462.701874 250.672363,458.643341 
	C253.251480,458.643341 255.496994,458.643341 257.742493,458.643341 
	C260.041382,458.643341 262.340271,458.643341 265.045410,458.643341 
	C265.045410,463.528107 265.045410,468.062347 265.045410,473.166779 
	C261.925903,473.166779 258.826508,473.166779 255.267303,473.165771 
z"/>
<path fill="#F1F1F6" opacity="1.000000" stroke="none" 
	d="
M236.498383,620.783752 
	C240.496399,616.534912 245.234421,618.766602 249.626251,618.732056 
	C250.097046,618.728271 250.949844,620.493896 250.994537,621.467712 
	C251.159775,625.068542 251.060242,628.681519 251.060242,633.189270 
	C247.100372,633.189270 243.508881,633.511353 240.030365,633.025085 
	C238.704025,632.839722 236.893814,630.953674 236.609558,629.573730 
	C236.055145,626.882141 236.420624,624.001099 236.498383,620.783752 
z"/>
<path fill="#F1F1F6" opacity="1.000000" stroke="none" 
	d="
M236.225662,695.343933 
	C236.087097,692.356873 236.862457,690.857849 239.839188,690.843384 
	C253.835876,690.775574 250.711060,689.812927 251.057709,701.231812 
	C251.097031,702.526672 250.923203,703.828003 250.830276,705.437012 
	C249.187027,705.529785 247.730804,705.690674 246.275620,705.681580 
	C235.327423,705.613342 236.282303,706.539551 236.225662,695.343933 
z"/>
<path fill="#FCFCFD" opacity="1.000000" stroke="none" 
	d="
M250.036438,502.308960 
	C251.669724,502.288239 253.303009,502.267517 255.784027,502.399994 
	C258.804779,502.646149 260.977783,502.739105 263.150787,502.832092 
	C263.150787,502.832092 263.546143,502.995605 263.945374,503.190491 
	C264.590881,503.621765 264.884338,503.751068 265.225006,503.773224 
	C265.416199,507.583801 265.607391,511.394379 265.847961,515.666626 
	C265.897339,516.128296 265.934814,516.076172 265.683960,516.041748 
	C264.960876,516.246582 264.488617,516.485779 264.016357,516.724976 
	C263.256500,516.727234 262.496643,516.729492 261.053040,516.548706 
	C258.249878,516.508057 256.130493,516.650452 254.011108,516.792847 
	C251.236206,517.143250 250.093536,516.037354 250.268600,513.146362 
	C250.469131,509.834686 250.298431,506.500519 250.220154,502.690857 
	C250.151260,502.205536 250.036438,502.308960 250.036438,502.308960 
z"/>
<path fill="#F9F9FB" opacity="1.000000" stroke="none" 
	d="
M250.254745,501.901947 
	C250.036438,502.308960 250.151260,502.205536 250.175812,502.176910 
	C245.801346,502.148285 241.402359,502.148285 236.637848,502.148285 
	C236.637848,497.343475 236.637848,492.981049 236.637848,487.977966 
	C240.644424,487.977966 244.549500,487.843750 248.440964,488.016418 
	C252.194138,488.182892 250.730515,491.174744 250.757019,493.770630 
	C250.637802,494.883179 250.727570,495.436340 250.817322,495.989471 
	C250.702560,497.824615 250.587814,499.659790 250.254745,501.901947 
z"/>
<path fill="#F9F9FB" opacity="1.000000" stroke="none" 
	d="
M237.485016,662.058594 
	C236.902802,661.776917 236.729965,661.528748 236.319565,661.183411 
	C236.198868,660.256470 236.262634,659.463684 236.519089,658.199463 
	C236.800995,657.479431 236.746567,657.265686 236.548492,657.086914 
	C236.485916,654.674194 236.423340,652.261414 236.740265,649.380249 
	C237.422821,648.516174 237.725861,648.120605 238.028900,647.725037 
	C241.713226,647.592651 245.397568,647.460266 249.527252,647.854248 
	C250.265198,650.583496 250.557770,652.786377 250.850342,654.989197 
	C250.907776,656.391174 250.965240,657.793213 250.749786,659.766663 
	C250.313278,660.780334 250.149673,661.222473 249.986084,661.664673 
	C245.973236,661.794800 241.960388,661.924866 237.485016,662.058594 
z"/>
<path fill="#FCFDFD" opacity="1.000000" stroke="none" 
	d="
M194.299469,633.044067 
	C198.728088,632.930847 202.692978,632.930847 207.071411,632.930847 
	C207.071411,637.633545 207.071411,642.140442 207.071411,647.025269 
	C202.515732,647.025269 197.984009,647.025269 192.474106,647.025269 
	C192.927994,642.402588 193.381866,637.779968 194.299469,633.044067 
z"/>
<path fill="#F1F1F6" opacity="1.000000" stroke="none" 
	d="
M236.638519,561.288940 
	C241.267471,560.962585 245.650085,560.967102 250.495422,560.980347 
	C251.004120,564.693604 251.050079,568.398132 250.809692,572.709229 
	C250.290085,573.556885 250.155106,573.844299 250.118378,574.177917 
	C250.118378,574.177917 250.065872,574.063354 249.784332,574.060242 
	C248.673035,574.273438 247.843277,574.489685 247.013504,574.705933 
	C244.956680,574.755676 242.899841,574.805420 240.208527,574.595947 
	C238.588943,573.874390 237.603867,573.411987 236.618805,572.949585 
	C236.543274,569.172974 236.467728,565.396301 236.638519,561.288940 
z"/>
<path fill="#F9F9FB" opacity="1.000000" stroke="none" 
	d="
M250.617325,543.630371 
	C248.092178,544.336060 245.697739,544.598816 243.130142,545.159058 
	C242.208054,545.540588 241.459122,545.624573 240.152069,545.465454 
	C238.662704,544.789978 237.731506,544.357605 236.800293,543.925293 
	C236.708389,540.533142 236.616501,537.140991 237.098907,533.225708 
	C241.753326,532.484253 245.833466,532.265869 249.913605,532.047485 
	C249.913605,532.047546 249.979675,532.013123 249.977600,532.319397 
	C250.240036,533.084534 250.504532,533.543396 250.769028,534.002258 
	C250.762024,537.063965 250.755020,540.125671 250.617325,543.630371 
z"/>
<path fill="#3785CB" opacity="1.000000" stroke="none" 
	d="
M875.585449,623.660461 
	C881.960999,623.981567 885.465332,628.388428 882.571655,632.267944 
	C881.303650,633.967896 878.461548,635.639465 876.571106,635.405945 
	C874.694153,635.174133 872.337524,632.832764 871.583496,630.879150 
	C870.389160,627.784546 872.017029,625.129395 875.585449,623.660461 
z"/>
<path fill="#E0E1ED" opacity="1.000000" stroke="none" 
	d="
M280.722046,603.592407 
	C281.046570,607.126038 280.874573,610.615417 281.005005,614.093506 
	C281.158966,618.197693 278.976807,619.702759 275.267639,619.954712 
	C272.320099,620.155029 269.383484,620.516174 266.100342,620.947632 
	C266.964539,616.836853 270.805328,618.217041 273.142395,618.464905 
	C278.839294,619.069153 279.948700,616.598938 279.581390,611.701050 
	C279.380035,609.016296 280.070831,606.264648 280.722046,603.592407 
z"/>
<path fill="#E0E1ED" opacity="1.000000" stroke="none" 
	d="
M265.924072,632.469543 
	C274.724335,632.311951 283.680481,632.513672 292.860870,633.007324 
	C284.083374,633.142517 275.081665,632.985718 265.924072,632.469543 
z"/>
<path fill="#E0E1ED" opacity="1.000000" stroke="none" 
	d="
M279.585938,576.388062 
	C280.081390,577.908569 281.040619,579.936096 280.872986,581.865723 
	C280.465424,586.557129 282.001343,588.738831 286.925903,588.040405 
	C288.017578,587.885559 289.192322,588.316345 290.656189,588.714600 
	C276.593536,589.195679 279.823090,591.078552 279.585938,576.388062 
z"/>
<path fill="#E0E1ED" opacity="1.000000" stroke="none" 
	d="
M279.545593,533.382324 
	C280.074097,534.567993 281.064941,536.273132 280.880615,537.840027 
	C280.287659,542.880310 281.674103,545.796997 287.642426,545.427124 
	C286.986694,545.731201 285.993896,545.787231 285.016998,545.943054 
	C280.972900,546.588135 279.149811,545.041748 279.541962,540.816956 
	C279.755859,538.512878 279.509003,536.166016 279.545593,533.382324 
z"/>
<path fill="#E0E1ED" opacity="1.000000" stroke="none" 
	d="
M280.712708,676.527039 
	C280.735992,680.955505 280.392700,685.350159 279.702423,689.899597 
	C279.685638,685.533997 280.015869,681.013611 280.712708,676.527039 
z"/>
<path fill="#E0E1ED" opacity="1.000000" stroke="none" 
	d="
M249.661301,531.714844 
	C245.833466,532.265869 241.753326,532.484253 237.280838,532.852173 
	C240.619019,529.037354 245.188934,531.562134 249.661301,531.714844 
z"/>
<path fill="#A2A3BF" opacity="1.000000" stroke="none" 
	d="
M254.325562,516.962158 
	C256.130493,516.650452 258.249878,516.508057 260.672546,516.560547 
	C258.863892,516.880737 256.751953,517.006104 254.325562,516.962158 
z"/>
<path fill="#A2A3BF" opacity="1.000000" stroke="none" 
	d="
M293.987549,477.377594 
	C294.160767,480.248718 294.209076,483.550262 293.975708,487.081390 
	C293.750275,484.143311 293.806458,480.975677 293.987549,477.377594 
z"/>
<path fill="#F1F1F6" opacity="1.000000" stroke="none" 
	d="
M250.944275,654.579956 
	C250.557770,652.786377 250.265198,650.583496 249.966278,647.997559 
	C250.319366,649.799866 250.678772,651.985291 250.944275,654.579956 
z"/>
<path fill="#A2A3BF" opacity="1.000000" stroke="none" 
	d="
M262.921326,502.478027 
	C260.977783,502.739105 258.804779,502.646149 256.273682,502.391754 
	C258.174347,502.194855 260.433105,502.159424 262.921326,502.478027 
z"/>
<path fill="#E0E1ED" opacity="1.000000" stroke="none" 
	d="
M236.592743,573.275146 
	C237.603867,573.411987 238.588943,573.874390 239.772766,574.523315 
	C238.836578,574.340088 237.701630,573.970398 236.592743,573.275146 
z"/>
<path fill="#E0E1ED" opacity="1.000000" stroke="none" 
	d="
M236.737030,544.235168 
	C237.731506,544.357605 238.662704,544.789978 239.778656,545.401611 
	C238.866837,545.235596 237.770279,544.890320 236.737030,544.235168 
z"/>
<path fill="#E0E1ED" opacity="1.000000" stroke="none" 
	d="
M292.911560,589.343018 
	C293.429077,589.016174 294.073914,588.921082 295.443665,588.719238 
	C296.508484,588.651794 296.791138,588.800049 297.016541,589.057373 
	C296.228271,589.489197 295.440002,589.921021 294.423126,590.506287 
	C293.809296,590.298096 293.424072,589.936401 292.911560,589.343018 
z"/>
<path fill="#E0E1ED" opacity="1.000000" stroke="none" 
	d="
M265.588562,573.223511 
	C266.342285,573.365662 267.040466,573.807251 267.868896,574.464966 
	C267.177063,574.295044 266.355042,573.909058 265.588562,573.223511 
z"/>
<path fill="#A2A3BF" opacity="1.000000" stroke="none" 
	d="
M250.967712,495.829041 
	C250.727570,495.436340 250.637802,494.883179 250.719360,494.170532 
	C250.966476,494.563538 251.042282,495.116089 250.967712,495.829041 
z"/>
<path fill="#E0E1ED" opacity="1.000000" stroke="none" 
	d="
M294.174316,602.331665 
	C294.094910,602.659668 293.815826,603.232910 293.349915,603.676880 
	C293.433594,603.224060 293.704163,602.900513 294.174316,602.331665 
z"/>
<path fill="#A2A3BF" opacity="1.000000" stroke="none" 
	d="
M264.178528,516.961914 
	C264.488617,516.485779 264.960876,516.246582 265.704041,516.016724 
	C265.914734,516.546692 265.854523,517.067322 265.681549,517.967529 
	C265.159454,517.964478 264.750092,517.581726 264.178528,516.961914 
z"/>
<path fill="#F1F1F6" opacity="1.000000" stroke="none" 
	d="
M237.803864,647.637146 
	C237.725861,648.120605 237.422821,648.516174 236.935196,648.971313 
	C237.026688,648.537048 237.302765,648.043152 237.803864,647.637146 
z"/>
<path fill="#E0E1ED" opacity="1.000000" stroke="none" 
	d="
M247.347260,574.798706 
	C247.843277,574.489685 248.673035,574.273438 249.832367,574.101013 
	C249.334961,574.393738 248.507980,574.642578 247.347260,574.798706 
z"/>
<path fill="#F1F1F6" opacity="1.000000" stroke="none" 
	d="
M250.291321,661.673706 
	C250.149673,661.222473 250.313278,660.780334 250.656982,660.178833 
	C250.789658,660.526184 250.742218,661.032898 250.737823,661.936401 
	C250.780853,662.333130 250.809402,662.276794 250.822540,662.260742 
	C250.755966,662.057373 250.676254,661.870056 250.291321,661.673706 
z"/>
<path fill="#E0E1ED" opacity="1.000000" stroke="none" 
	d="
M273.323242,574.774780 
	C273.554657,574.557129 274.110962,574.447937 274.828369,574.511108 
	C274.542358,574.750000 274.095245,574.816650 273.323242,574.774780 
z"/>
<path fill="#E0E1ED" opacity="1.000000" stroke="none" 
	d="
M294.238617,549.325073 
	C294.467072,549.567749 294.559967,550.127075 294.471069,550.838257 
	C294.227203,550.540710 294.165100,550.091248 294.238617,549.325073 
z"/>
<path fill="#E0E1ED" opacity="1.000000" stroke="none" 
	d="
M250.871246,533.712769 
	C250.504532,533.543396 250.240036,533.084534 249.964935,532.354431 
	C250.294067,532.529846 250.633774,532.976562 250.871246,533.712769 
z"/>
<path fill="#E0E1ED" opacity="1.000000" stroke="none" 
	d="
M294.066711,675.197754 
	C294.301941,675.202942 294.388733,675.407349 294.410095,675.618347 
	C294.417694,675.693481 294.266571,675.784607 294.016724,675.899536 
	C293.861145,675.753662 293.876801,675.576660 294.066711,675.197754 
z"/>
<path fill="#E0E1ED" opacity="1.000000" stroke="none" 
	d="
M268.740112,690.807007 
	C268.724884,691.023193 268.458344,691.129150 268.097412,691.093628 
	C268.164917,690.866943 268.326843,690.781860 268.740112,690.807007 
z"/>
<path fill="#E0E1ED" opacity="1.000000" stroke="none" 
	d="
M271.746796,690.825073 
	C271.724945,691.024536 271.454651,691.122070 271.093750,691.075439 
	C271.168243,690.861877 271.333282,690.792542 271.746796,690.825073 
z"/>
<path fill="#F1F1F6" opacity="1.000000" stroke="none" 
	d="
M236.430176,657.293640 
	C236.746567,657.265686 236.800995,657.479431 236.633881,657.818726 
	C236.555969,657.909363 236.311874,657.500366 236.430176,657.293640 
z"/>
<path fill="#E0E1ED" opacity="1.000000" stroke="none" 
	d="
M250.383118,574.098511 
	C250.155106,573.844299 250.290085,573.556885 250.708878,573.160828 
	C250.812225,573.343689 250.730042,573.681396 250.383118,574.098511 
z"/>
<path fill="#E0E1ED" opacity="1.000000" stroke="none" 
	d="
M294.205383,555.248047 
	C294.631714,555.163879 294.740997,555.432068 294.479675,555.895996 
	C294.275238,555.833740 294.201660,555.669922 294.205383,555.248047 
z"/>
<path fill="#E0E1ED" opacity="1.000000" stroke="none" 
	d="
M293.732025,546.117310 
	C293.772614,545.991882 294.123810,546.260376 294.114594,546.376953 
	C293.894775,546.529846 293.756775,546.446228 293.732025,546.117310 
z"/>
<path fill="#E0E1ED" opacity="1.000000" stroke="none" 
	d="
M291.250854,545.681030 
	C291.173889,545.250366 291.439087,545.149597 291.891235,545.420654 
	C291.824646,545.625671 291.662903,545.698425 291.250854,545.681030 
z"/>
<path fill="#E0E1ED" opacity="1.000000" stroke="none" 
	d="
M265.791656,530.435791 
	C266.029083,530.291809 266.339539,530.448364 266.823486,530.804810 
	C266.619537,530.915283 266.242096,530.825867 265.791656,530.435791 
z"/>
<path fill="#A2A3BF" opacity="1.000000" stroke="none" 
	d="
M265.143860,503.494324 
	C264.884338,503.751068 264.590881,503.621765 264.155640,503.229889 
	C264.332001,503.121429 264.697388,503.168396 265.143860,503.494324 
z"/>
<path fill="#323465" opacity="1.000000" stroke="none" 
	d="
M294.994507,503.202271 
	C297.378662,502.610107 299.594330,502.410980 302.132294,502.182892 
	C302.132294,507.163208 302.132294,511.519348 302.132294,516.249451 
	C299.789551,516.249451 297.579529,516.249451 294.825989,516.249451 
	C294.825989,512.041565 294.825989,507.818420 294.994507,503.202271 
z"/>
<path fill="#323465" opacity="1.000000" stroke="none" 
	d="
M297.432373,588.985718 
	C296.791138,588.800049 296.508484,588.651794 295.928192,588.653442 
	C295.330231,586.440918 294.972717,584.187317 294.657318,581.080750 
	C294.756653,578.469055 294.813873,576.710327 294.871124,574.951660 
	C295.058746,574.899170 295.246368,574.846741 295.966644,574.795898 
	C296.669891,574.748535 296.840485,574.699768 297.011078,574.651123 
	C298.651764,574.766846 300.292450,574.882568 302.247925,575.020447 
	C302.247925,579.545715 302.247925,583.929321 302.247925,588.914062 
	C300.702850,588.914062 299.275543,588.914062 297.432373,588.985718 
z"/>
<path fill="#323465" opacity="1.000000" stroke="none" 
	d="
M295.645020,661.479370 
	C295.101898,657.123169 294.963531,652.896851 294.891479,648.195190 
	C297.243225,647.719849 299.528656,647.719849 302.192749,647.719849 
	C302.192749,652.390320 302.192749,656.745422 302.192749,661.609192 
	C300.148712,661.609192 298.099243,661.609192 295.645020,661.479370 
z"/>
<path fill="#E0E1ED" opacity="1.000000" stroke="none" 
	d="
M294.543030,575.055786 
	C294.813873,576.710327 294.756653,578.469055 294.575745,580.650146 
	C294.373016,579.101746 294.293945,577.130859 294.543030,575.055786 
z"/>
<path fill="#E0E1ED" opacity="1.000000" stroke="none" 
	d="
M296.911774,574.524292 
	C296.840485,574.699768 296.669891,574.748535 296.246887,574.713074 
	C296.201111,574.317139 296.473785,574.240051 296.911774,574.524292 
z"/>
<path fill="#23255E" opacity="1.000000" stroke="none" 
	d="
M1230.994019,509.892426 
	C1245.677734,510.531799 1256.600464,520.144836 1257.761230,534.297363 
	C1258.276855,540.584656 1257.753540,547.422668 1255.745972,553.348206 
	C1252.258545,563.642456 1244.131470,569.346191 1233.180054,570.271484 
	C1222.571045,571.167786 1214.430298,566.618164 1208.722412,557.838501 
	C1197.125610,540.000916 1205.467285,515.343506 1224.630493,510.611267 
	C1226.544556,510.138580 1228.571289,510.121429 1230.994019,509.892426 
z"/>
<path fill="#23255E" opacity="1.000000" stroke="none" 
	d="
M741.031006,511.733978 
	C759.955627,505.726959 776.359497,516.578125 778.175537,535.944031 
	C778.958557,544.293823 777.862610,552.230530 772.854858,559.268005 
	C763.122437,572.945251 743.545959,574.159851 731.932495,562.059448 
	C719.648438,549.260193 720.316162,520.230225 741.031006,511.733978 
z"/>
<path fill="#24265F" opacity="1.000000" stroke="none" 
	d="
M630.980835,482.945251 
	C635.952942,483.216217 640.522156,483.015137 644.890869,483.855988 
	C654.049194,485.618713 658.363586,491.818268 658.291565,502.104370 
	C658.223755,511.777222 653.632019,518.665833 644.675415,519.649109 
	C635.662659,520.638550 626.456604,519.866821 616.980469,519.866821 
	C616.980469,507.942841 616.980469,495.729431 616.980469,482.945129 
	C621.588684,482.945129 626.037903,482.945129 630.980835,482.945251 
z"/>
<path fill="#1F2460" opacity="1.000000" stroke="none" 
	d="
M667.092468,664.300110 
	C673.959106,654.498108 684.671753,651.157837 695.376526,655.223206 
	C705.362305,659.015564 711.244446,670.088806 709.703857,682.194824 
	C707.666260,698.206177 693.932129,707.618408 679.407410,702.986633 
	C670.992859,700.303162 665.909485,694.415344 664.326355,685.981812 
	C662.967285,678.741882 663.097046,671.382446 667.092468,664.300110 
z"/>
<path fill="#1F2460" opacity="1.000000" stroke="none" 
	d="
M904.477661,681.464294 
	C903.263855,663.623718 913.710327,652.514160 930.050415,653.859070 
	C936.936646,654.425903 942.360962,657.595215 946.152588,663.438721 
	C955.361938,677.631958 949.392700,697.779358 934.719299,702.799683 
	C922.946838,706.827393 905.588928,701.050049 904.477661,681.464294 
z"/>
</svg>